<svg width="35" height="35" viewBox="0 0 35 35" fill="none" xmlns="http://www.w3.org/2000/svg">
<g opacity="0.18">
<path d="M27.5676 25.8527C28.1452 26.3296 28.2317 27.1903 27.7037 27.7216C26.6181 28.8145 25.3636 29.7292 23.9857 30.4293C22.2041 31.3344 20.255 31.861 18.2607 31.976C16.2663 32.091 14.2697 31.7919 12.3963 31.0975C10.9473 30.5604 9.59619 29.7959 8.39252 28.835C7.80719 28.3678 7.79452 27.5029 8.31364 26.9628C8.83276 26.4228 9.68653 26.4136 10.2818 26.8682C11.2092 27.5763 12.2385 28.1443 13.337 28.5515C14.8603 29.1161 16.4835 29.3592 18.1048 29.2658C19.7263 29.1723 21.311 28.7442 22.7594 28.0083C23.804 27.4775 24.7615 26.795 25.6017 25.9849C26.1408 25.465 26.99 25.3759 27.5676 25.8527Z" fill="#4286F5"/>
<path d="M27.5676 25.8527C28.1452 26.3296 28.2317 27.1903 27.7037 27.7216C26.6181 28.8145 25.3636 29.7292 23.9857 30.4293C22.2041 31.3344 20.255 31.861 18.2607 31.976C16.2663 32.091 14.2697 31.7919 12.3963 31.0975C10.9473 30.5604 9.59619 29.7959 8.39252 28.835C7.80719 28.3678 7.79452 27.5029 8.31364 26.9628C8.83276 26.4228 9.68653 26.4136 10.2818 26.8682C11.2092 27.5763 12.2385 28.1443 13.337 28.5515C14.8603 29.1161 16.4835 29.3592 18.1048 29.2658C19.7263 29.1723 21.311 28.7442 22.7594 28.0083C23.804 27.4775 24.7615 26.795 25.6017 25.9849C26.1408 25.465 26.99 25.3759 27.5676 25.8527Z" fill="#4286F5"/>
<path d="M4.79383 21.3545C4.14064 21.5507 3.44678 21.18 3.30715 20.5115C3.00278 19.0543 2.92351 17.5565 3.07431 16.0705C3.22513 14.5845 3.60371 13.1332 4.19461 11.7672C4.4657 11.1405 5.21983 10.9172 5.82024 11.2412C6.42066 11.565 6.63881 12.3131 6.37871 12.9445C5.93529 14.0208 5.6492 15.1579 5.5312 16.3207C5.41319 17.4833 5.46498 18.6548 5.6831 19.7985C5.81103 20.4693 5.44703 21.1582 4.79383 21.3545Z" fill="#34A853"/>
<path d="M4.79383 21.3545C4.14064 21.5507 3.44678 21.18 3.30715 20.5115C3.00278 19.0543 2.92351 17.5565 3.07431 16.0705C3.22513 14.5845 3.60371 13.1332 4.19461 11.7672C4.4657 11.1405 5.21983 10.9172 5.82024 11.2412C6.42066 11.565 6.63881 12.3131 6.37871 12.9445C5.93529 14.0208 5.6492 15.1579 5.5312 16.3207C5.41319 17.4833 5.46498 18.6548 5.6831 19.7985C5.81103 20.4693 5.44703 21.1582 4.79383 21.3545Z" fill="#34A853"/>
<path d="M30.2062 21.3545C30.8594 21.5507 31.5532 21.18 31.6929 20.5115C31.9972 19.0543 32.0765 17.5565 31.9257 16.0705C31.7749 14.5845 31.3963 13.1332 30.8054 11.7672C30.5343 11.1405 29.7802 10.9172 29.1798 11.2412C28.5794 11.565 28.3612 12.3131 28.6213 12.9445C29.0647 14.0208 29.3508 15.1579 29.4688 16.3207C29.5868 17.4833 29.535 18.6548 29.3169 19.7985C29.189 20.4693 29.553 21.1582 30.2062 21.3545Z" fill="#EA4235"/>
<path d="M30.2062 21.3545C30.8594 21.5507 31.5532 21.18 31.6929 20.5115C31.9972 19.0543 32.0765 17.5565 31.9257 16.0705C31.7749 14.5845 31.3963 13.1332 30.8054 11.7672C30.5343 11.1405 29.7802 10.9172 29.1798 11.2412C28.5794 11.565 28.3612 12.3131 28.6213 12.9445C29.0647 14.0208 29.3508 15.1579 29.4688 16.3207C29.5868 17.4833 29.535 18.6548 29.3169 19.7985C29.189 20.4693 29.553 21.1582 30.2062 21.3545Z" fill="#FF0000"/>
<path d="M30.2062 21.3545C30.8594 21.5507 31.5532 21.18 31.6929 20.5115C31.9972 19.0543 32.0765 17.5565 31.9257 16.0705C31.7749 14.5845 31.3963 13.1332 30.8054 11.7672C30.5343 11.1405 29.7802 10.9172 29.1798 11.2412C28.5794 11.565 28.3612 12.3131 28.6213 12.9445C29.0647 14.0208 29.3508 15.1579 29.4688 16.3207C29.5868 17.4833 29.535 18.6548 29.3169 19.7985C29.189 20.4693 29.553 21.1582 30.2062 21.3545Z" fill="#EA4235"/>
<path d="M30.2062 21.3545C30.8594 21.5507 31.5532 21.18 31.6929 20.5115C31.9972 19.0543 32.0765 17.5565 31.9257 16.0705C31.7749 14.5845 31.3963 13.1332 30.8054 11.7672C30.5343 11.1405 29.7802 10.9172 29.1798 11.2412C28.5794 11.565 28.3612 12.3131 28.6213 12.9445C29.0647 14.0208 29.3508 15.1579 29.4688 16.3207C29.5868 17.4833 29.535 18.6548 29.3169 19.7985C29.189 20.4693 29.553 21.1582 30.2062 21.3545Z" fill="#FF0000"/>
<path d="M9.96893 6.64003C9.54755 6.02033 9.70504 5.16969 10.3604 4.80741C12.6984 3.51501 15.3562 2.8902 18.0413 3.01583C20.7264 3.14145 23.3146 4.01167 25.5222 5.51674C26.141 5.93863 26.2186 6.80026 25.7414 7.37793C25.2643 7.95559 24.4135 8.02896 23.7858 7.62051C22.038 6.48329 20.0129 5.82599 17.9149 5.72784C15.8169 5.62969 13.7394 6.09504 11.8935 7.06414C11.2305 7.41221 10.3902 7.25973 9.96893 6.64003Z" fill="#FABC05"/>
<path d="M9.96893 6.64003C9.54755 6.02033 9.70504 5.16969 10.3604 4.80741C12.6984 3.51501 15.3562 2.8902 18.0413 3.01583C20.7264 3.14145 23.3146 4.01167 25.5222 5.51674C26.141 5.93863 26.2186 6.80026 25.7414 7.37793C25.2643 7.95559 24.4135 8.02896 23.7858 7.62051C22.038 6.48329 20.0129 5.82599 17.9149 5.72784C15.8169 5.62969 13.7394 6.09504 11.8935 7.06414C11.2305 7.41221 10.3902 7.25973 9.96893 6.64003Z" fill="#FABC05"/>
</g>
<path d="M29.6505 27.5808C30.3477 28.1564 30.4521 29.1951 29.8148 29.8364C28.5046 31.1554 26.9905 32.2594 25.3276 33.1043C23.1774 34.1967 20.825 34.8323 18.4181 34.971C16.011 35.1098 13.6014 34.7489 11.3403 33.9107C9.59161 33.2625 7.96091 32.3399 6.50821 31.1802C5.80178 30.6163 5.78648 29.5725 6.41301 28.9207C7.03953 28.2688 8.06994 28.2578 8.78837 28.8064C9.90765 29.6611 11.15 30.3466 12.4757 30.838C14.3141 31.5194 16.2731 31.8128 18.23 31.7001C20.1869 31.5873 22.0995 31.0706 23.8475 30.1824C25.1083 29.5418 26.2638 28.7181 27.2778 27.7404C27.9285 27.1129 28.9535 27.0054 29.6505 27.5808Z" fill="#4286F5"/>
<path d="M29.6505 27.5808C30.3477 28.1564 30.4521 29.1951 29.8148 29.8364C28.5046 31.1554 26.9905 32.2594 25.3276 33.1043C23.1774 34.1967 20.825 34.8323 18.4181 34.971C16.011 35.1098 13.6014 34.7489 11.3403 33.9107C9.59161 33.2625 7.96091 32.3399 6.50821 31.1802C5.80178 30.6163 5.78648 29.5725 6.41301 28.9207C7.03953 28.2688 8.06994 28.2578 8.78837 28.8064C9.90765 29.6611 11.15 30.3466 12.4757 30.838C14.3141 31.5194 16.2731 31.8128 18.23 31.7001C20.1869 31.5873 22.0995 31.0706 23.8475 30.1824C25.1083 29.5418 26.2638 28.7181 27.2778 27.7404C27.9285 27.1129 28.9535 27.0054 29.6505 27.5808Z" fill="#4286F5"/>
<path d="M2.16497 22.152C1.37663 22.3887 0.539217 21.9414 0.370688 21.1346C0.00335606 19.3759 -0.0923222 17.5682 0.0896852 15.7747C0.271707 13.9813 0.728615 12.2298 1.44177 10.5811C1.76894 9.82471 2.67911 9.55529 3.40373 9.94625C4.12838 10.3371 4.39166 11.24 4.07775 12.002C3.54259 13.301 3.1973 14.6733 3.05489 16.0767C2.91247 17.4798 2.97497 18.8937 3.23821 20.274C3.39262 21.0837 2.95331 21.9151 2.16497 22.152Z" fill="#34A853"/>
<path d="M2.16497 22.152C1.37663 22.3887 0.539217 21.9414 0.370688 21.1346C0.00335606 19.3759 -0.0923222 17.5682 0.0896852 15.7747C0.271707 13.9813 0.728615 12.2298 1.44177 10.5811C1.76894 9.82471 2.67911 9.55529 3.40373 9.94625C4.12838 10.3371 4.39166 11.24 4.07775 12.002C3.54259 13.301 3.1973 14.6733 3.05489 16.0767C2.91247 17.4798 2.97497 18.8937 3.23821 20.274C3.39262 21.0837 2.95331 21.9151 2.16497 22.152Z" fill="#34A853"/>
<path d="M32.835 22.152C33.6234 22.3887 34.4608 21.9414 34.6293 21.1346C34.9966 19.3759 35.0923 17.5682 34.9103 15.7747C34.7283 13.9813 34.2714 12.2298 33.5582 10.5811C33.2311 9.82471 32.3209 9.55529 31.5963 9.94625C30.8716 10.3371 30.6083 11.24 30.9222 12.002C31.4574 13.301 31.8027 14.6733 31.9451 16.0767C32.0875 17.4798 32.025 18.8937 31.7618 20.274C31.6074 21.0837 32.0467 21.9151 32.835 22.152Z" fill="#EA4235"/>
<path d="M32.835 22.152C33.6234 22.3887 34.4608 21.9414 34.6293 21.1346C34.9966 19.3759 35.0923 17.5682 34.9103 15.7747C34.7283 13.9813 34.2714 12.2298 33.5582 10.5811C33.2311 9.82471 32.3209 9.55529 31.5963 9.94625C30.8716 10.3371 30.6083 11.24 30.9222 12.002C31.4574 13.301 31.8027 14.6733 31.9451 16.0767C32.0875 17.4798 32.025 18.8937 31.7618 20.274C31.6074 21.0837 32.0467 21.9151 32.835 22.152Z" fill="#FF0000"/>
<path d="M32.835 22.152C33.6234 22.3887 34.4608 21.9414 34.6293 21.1346C34.9966 19.3759 35.0923 17.5682 34.9103 15.7747C34.7283 13.9813 34.2714 12.2298 33.5582 10.5811C33.2311 9.82471 32.3209 9.55529 31.5963 9.94625C30.8716 10.3371 30.6083 11.24 30.9222 12.002C31.4574 13.301 31.8027 14.6733 31.9451 16.0767C32.0875 17.4798 32.025 18.8937 31.7618 20.274C31.6074 21.0837 32.0467 21.9151 32.835 22.152Z" fill="#EA4235"/>
<path d="M32.835 22.152C33.6234 22.3887 34.4608 21.9414 34.6293 21.1346C34.9966 19.3759 35.0923 17.5682 34.9103 15.7747C34.7283 13.9813 34.2714 12.2298 33.5582 10.5811C33.2311 9.82471 32.3209 9.55529 31.5963 9.94625C30.8716 10.3371 30.6083 11.24 30.9222 12.002C31.4574 13.301 31.8027 14.6733 31.9451 16.0767C32.0875 17.4798 32.025 18.8937 31.7618 20.274C31.6074 21.0837 32.0467 21.9151 32.835 22.152Z" fill="#FF0000"/>
<path d="M8.41077 4.39314C7.90221 3.64522 8.09229 2.61858 8.88318 2.18135C11.705 0.621553 14.9127 -0.132523 18.1532 0.0190952C21.3939 0.170706 24.5175 1.22098 27.1819 3.03744C27.9287 3.54662 28.0225 4.58652 27.4465 5.28371C26.8706 5.98088 25.8438 6.06943 25.0863 5.57647C22.9769 4.20397 20.5328 3.41067 18.0007 3.29222C15.4686 3.17376 12.9613 3.73539 10.7335 4.90499C9.93338 5.32507 8.91918 5.14104 8.41077 4.39314Z" fill="#FABC05"/>
<path d="M8.41077 4.39314C7.90221 3.64522 8.09229 2.61858 8.88318 2.18135C11.705 0.621553 14.9127 -0.132523 18.1532 0.0190952C21.3939 0.170706 24.5175 1.22098 27.1819 3.03744C27.9287 3.54662 28.0225 4.58652 27.4465 5.28371C26.8706 5.98088 25.8438 6.06943 25.0863 5.57647C22.9769 4.20397 20.5328 3.41067 18.0007 3.29222C15.4686 3.17376 12.9613 3.73539 10.7335 4.90499C9.93338 5.32507 8.91918 5.14104 8.41077 4.39314Z" fill="#FABC05"/>
</svg>
