<svg width="67" height="35" viewBox="0 0 67 35" fill="none" xmlns="http://www.w3.org/2000/svg">
<mask id="path-1-inside-1_3_45" fill="white">
<path d="M26.2442 24.7078C26.7423 25.1184 26.8169 25.8594 26.3616 26.3169C25.4255 27.2578 24.3437 28.0454 23.1556 28.6481C21.6193 29.4274 19.9386 29.8808 18.2189 29.9798C16.4991 30.0788 14.7775 29.8213 13.162 29.2234C11.9126 28.761 10.7475 28.1028 9.70958 27.2755C9.20485 26.8732 9.19392 26.1286 9.64156 25.6636V25.6636C10.0892 25.1986 10.8254 25.1907 11.3387 25.5821C12.1384 26.1918 13.026 26.6808 13.9732 27.0314C15.2867 27.5175 16.6864 27.7268 18.0845 27.6464C19.4827 27.5659 20.8492 27.1973 22.0981 26.5637C22.9989 26.1067 23.8245 25.5191 24.549 24.8216C25.0139 24.374 25.7462 24.2973 26.2442 24.7078V24.7078Z"/>
</mask>
<path d="M26.2442 24.7078C26.7423 25.1184 26.8169 25.8594 26.3616 26.3169C25.4255 27.2578 24.3437 28.0454 23.1556 28.6481C21.6193 29.4274 19.9386 29.8808 18.2189 29.9798C16.4991 30.0788 14.7775 29.8213 13.162 29.2234C11.9126 28.761 10.7475 28.1028 9.70958 27.2755C9.20485 26.8732 9.19392 26.1286 9.64156 25.6636V25.6636C10.0892 25.1986 10.8254 25.1907 11.3387 25.5821C12.1384 26.1918 13.026 26.6808 13.9732 27.0314C15.2867 27.5175 16.6864 27.7268 18.0845 27.6464C19.4827 27.5659 20.8492 27.1973 22.0981 26.5637C22.9989 26.1067 23.8245 25.5191 24.549 24.8216C25.0139 24.374 25.7462 24.2973 26.2442 24.7078V24.7078Z" stroke="#4286F5" stroke-width="4" mask="url(#path-1-inside-1_3_45)"/>
<mask id="path-2-inside-2_3_45" fill="white">
<path d="M6.54731 20.7858C5.98406 20.9547 5.38575 20.6356 5.26534 20.06C5.00289 18.8054 4.93453 17.5158 5.06457 16.2364C5.19462 14.957 5.52107 13.7075 6.0306 12.5314C6.26436 11.9918 6.91465 11.7996 7.43238 12.0785V12.0785C7.95012 12.3573 8.13823 13.0014 7.91395 13.545C7.53159 14.4717 7.28489 15.4507 7.18314 16.4518C7.08138 17.4528 7.12604 18.4614 7.31412 19.4461C7.42444 20.0237 7.11056 20.6168 6.54731 20.7858V20.7858Z"/>
</mask>
<path d="M6.54731 20.7858C5.98406 20.9547 5.38575 20.6356 5.26534 20.06C5.00289 18.8054 4.93453 17.5158 5.06457 16.2364C5.19462 14.957 5.52107 13.7075 6.0306 12.5314C6.26436 11.9918 6.91465 11.7996 7.43238 12.0785V12.0785C7.95012 12.3573 8.13823 13.0014 7.91395 13.545C7.53159 14.4717 7.28489 15.4507 7.18314 16.4518C7.08138 17.4528 7.12604 18.4614 7.31412 19.4461C7.42444 20.0237 7.11056 20.6168 6.54731 20.7858V20.7858Z" stroke="#34A853" stroke-width="4" mask="url(#path-2-inside-2_3_45)"/>
<mask id="path-3-inside-3_3_45" fill="white">
<path d="M11.5729 7.84331C11.2352 7.29318 11.4055 6.56804 11.9847 6.2832C14.0512 5.26705 16.3659 4.83808 18.6735 5.0556C20.9812 5.27312 23.175 6.12705 25.0152 7.51144C25.531 7.8995 25.5628 8.64368 25.1282 9.12102V9.12102C24.6937 9.59836 23.9579 9.62677 23.4339 9.2499C21.9748 8.20062 20.2573 7.55276 18.4542 7.38281C16.6511 7.21285 14.8427 7.52835 13.2133 8.28652C12.6281 8.55883 11.9105 8.39343 11.5729 7.84331V7.84331Z"/>
</mask>
<path d="M11.5729 7.84331C11.2352 7.29318 11.4055 6.56804 11.9847 6.2832C14.0512 5.26705 16.3659 4.83808 18.6735 5.0556C20.9812 5.27312 23.175 6.12705 25.0152 7.51144C25.531 7.8995 25.5628 8.64368 25.1282 9.12102V9.12102C24.6937 9.59836 23.9579 9.62677 23.4339 9.2499C21.9748 8.20062 20.2573 7.55276 18.4542 7.38281C16.6511 7.21285 14.8427 7.52835 13.2133 8.28652C12.6281 8.55883 11.9105 8.39343 11.5729 7.84331V7.84331Z" stroke="#FABC05" stroke-width="4" mask="url(#path-3-inside-3_3_45)"/>
<path d="M41.6266 24.0205C41.1332 24.0205 40.7999 23.8938 40.6266 23.6405C40.4532 23.3872 40.3666 23.1072 40.3666 22.8005V9.32048C40.3666 9.01382 40.4532 8.74048 40.6266 8.50048C40.7999 8.24715 41.1332 8.12048 41.6266 8.12048H48.5866C49.0799 8.12048 49.3399 8.45382 49.3666 9.12048C49.3932 9.80048 49.1332 10.1405 48.5866 10.1405H42.7266V22.0005H48.9466C49.4399 22.0005 49.6932 22.3272 49.7066 22.9805C49.7332 23.6738 49.4799 24.0205 48.9466 24.0205H41.6266Z" fill="#2A2424"/>
<path d="M33.9813 14.8605C34.328 14.8605 34.688 14.9338 35.0613 15.0805C35.4346 15.2272 35.7946 15.4205 36.1413 15.6605H36.1213C36.468 15.9005 36.7346 16.2272 36.9213 16.6405C37.108 17.0538 37.2013 17.5272 37.2013 18.0605V20.8005C37.2013 21.8805 36.8413 22.6872 36.1213 23.2205C35.7746 23.4738 35.4146 23.6738 35.0413 23.8205C34.6813 23.9538 34.328 24.0205 33.9813 24.0205H29.6213C29.2746 24.0205 28.9146 23.9538 28.5413 23.8205C28.1813 23.6738 27.828 23.4738 27.4813 23.2205C26.7613 22.6872 26.4013 21.8805 26.4013 20.8005V19.4805C26.4013 18.8538 26.7946 18.5405 27.5813 18.5405C28.3813 18.5405 28.7813 18.8538 28.7813 19.4805V20.6405C28.7813 20.9872 28.8813 21.3005 29.0813 21.5805C29.2813 21.8605 29.628 22.0005 30.1213 22.0005H33.4813C33.9746 22.0005 34.3213 21.8605 34.5213 21.5805C34.7213 21.3005 34.8213 20.9872 34.8213 20.6405V18.2205C34.8213 17.8872 34.7213 17.5805 34.5213 17.3005C34.3213 17.0072 33.9746 16.8605 33.4813 16.8605H29.6213C28.928 16.8605 28.2146 16.6071 27.4813 16.1005C26.7613 15.5405 26.4013 14.7338 26.4013 13.6805V11.3005C26.4013 10.7672 26.4946 10.3005 26.6813 9.90048C26.868 9.48715 27.1346 9.15382 27.4813 8.90048H27.4613C27.808 8.67382 28.168 8.48715 28.5413 8.34048C28.9146 8.19382 29.2746 8.12048 29.6213 8.12048H33.9813C34.328 8.12048 34.688 8.19382 35.0613 8.34048C35.4346 8.48715 35.7946 8.67382 36.1413 8.90048H36.1213C36.468 9.15382 36.7346 9.48715 36.9213 9.90048C37.108 10.3005 37.2013 10.7672 37.2013 11.3005V12.4805C37.2013 13.1072 36.8013 13.4205 36.0013 13.4205C35.2146 13.4205 34.8213 13.1072 34.8213 12.4805V11.4805C34.8213 11.1472 34.7213 10.8405 34.5213 10.5605C34.3213 10.2805 33.9746 10.1405 33.4813 10.1405H30.1213C29.628 10.1405 29.2813 10.2805 29.0813 10.5605C28.8813 10.8405 28.7813 11.1472 28.7813 11.4805V13.5205C28.7813 13.8671 28.8813 14.1805 29.0813 14.4605C29.2813 14.7271 29.628 14.8605 30.1213 14.8605H33.9813Z" fill="#2A2424"/>
<path d="M7.6605 22.0005C8.15384 22.0005 8.50051 21.8605 8.70051 21.5805C8.90051 21.3005 9.00051 20.9872 9.00051 20.6405V11.4805C9.00051 11.1472 8.90051 10.8405 8.70051 10.5605C8.50051 10.2805 8.15384 10.1405 7.6605 10.1405H2.98051L2.96051 23.1805C2.96051 23.4738 2.84717 23.7072 2.62051 23.8805C2.39384 24.0538 2.33383 24.0005 2.0005 24.0005C0.500487 24.0005 0.600507 24.0005 0.600506 23.1805C0.600505 22.3605 0.600506 9.32048 0.600506 9.32048C0.600506 8.84048 0.720506 8.52048 0.960506 8.36048C1.21384 8.20048 1.51384 8.12048 1.86051 8.12048H8.1605C8.50717 8.12048 8.86717 8.19382 9.24051 8.34048C9.61384 8.48715 9.97384 8.67382 10.3205 8.90048H10.3005C10.6472 9.15382 10.9138 9.48715 11.1005 9.90048C11.2872 10.3005 11.3805 10.7672 11.3805 11.3005V20.8005C11.3805 21.8805 11.0205 22.6872 10.3005 23.2205C9.95384 23.4738 9.59384 23.6738 9.22051 23.8205C8.86051 23.9538 8.50717 24.0205 8.1605 24.0205L1.92146 23.9299C1.69479 23.9299 1.51479 23.8366 1.38146 23.6499C1.26146 23.4632 1.20146 23.2166 1.20146 22.9099C1.20146 22.2432 1.48813 21.9099 2.06146 21.9099L7.6605 22.0005Z" fill="#2A2424"/>
<path d="M47.3466 16.9205C47.6799 16.6005 47.8466 16.2071 47.8466 15.7405C47.8466 15.2738 47.6799 14.8805 47.3466 14.5605C47.0266 14.2405 46.6333 14.0805 46.1666 14.0805C45.7133 14.0805 45.3266 14.2405 45.0066 14.5605C44.6866 14.8805 44.5266 15.2738 44.5266 15.7405C44.5266 16.2071 44.6866 16.6005 45.0066 16.9205C45.3266 17.2405 45.7133 17.4005 46.1666 17.4005C46.6333 17.4005 47.0266 17.2405 47.3466 16.9205Z" fill="#EA4235"/>
<mask id="path-8-inside-4_3_45" fill="white">
<path d="M52.5375 13.5936C51.9664 13.3809 51.6694 12.7407 51.9586 12.2042C52.6728 10.8792 53.7506 9.77554 55.0752 9.02966C56.7221 8.10234 58.644 7.788 60.5005 8.14237C62.3569 8.49673 64.028 9.49691 65.2174 10.9656C66.4069 12.4344 67.0379 14.2768 66.9988 16.1663C66.9596 18.0559 66.2527 19.8706 65.0034 21.2887C63.7541 22.7069 62.043 23.6369 60.1734 23.914C58.3039 24.1911 56.3966 23.7974 54.7897 22.8026C53.4971 22.0025 52.466 20.855 51.8072 19.5016C51.5406 18.9536 51.8639 18.3262 52.4433 18.1374V18.1374C53.0227 17.9486 53.6368 18.2727 53.9319 18.8058C54.4094 19.6686 55.1025 20.4008 55.9512 20.9262C57.1149 21.6466 58.4961 21.9317 59.8499 21.7311C61.2037 21.5304 62.4428 20.8569 63.3475 19.8299C64.2521 18.803 64.764 17.4889 64.7924 16.1206C64.8208 14.7523 64.3638 13.4181 63.5025 12.3545C62.6411 11.2909 61.431 10.5667 60.0867 10.3101C58.7424 10.0534 57.3506 10.2811 56.158 10.9526C55.2882 11.4424 54.5654 12.1452 54.0525 12.9874C53.7356 13.5079 53.1086 13.8063 52.5375 13.5936V13.5936Z"/>
</mask>
<path d="M52.5375 13.5936C51.9664 13.3809 51.6694 12.7407 51.9586 12.2042C52.6728 10.8792 53.7506 9.77554 55.0752 9.02966C56.7221 8.10234 58.644 7.788 60.5005 8.14237C62.3569 8.49673 64.028 9.49691 65.2174 10.9656C66.4069 12.4344 67.0379 14.2768 66.9988 16.1663C66.9596 18.0559 66.2527 19.8706 65.0034 21.2887C63.7541 22.7069 62.043 23.6369 60.1734 23.914C58.3039 24.1911 56.3966 23.7974 54.7897 22.8026C53.4971 22.0025 52.466 20.855 51.8072 19.5016C51.5406 18.9536 51.8639 18.3262 52.4433 18.1374V18.1374C53.0227 17.9486 53.6368 18.2727 53.9319 18.8058C54.4094 19.6686 55.1025 20.4008 55.9512 20.9262C57.1149 21.6466 58.4961 21.9317 59.8499 21.7311C61.2037 21.5304 62.4428 20.8569 63.3475 19.8299C64.2521 18.803 64.764 17.4889 64.7924 16.1206C64.8208 14.7523 64.3638 13.4181 63.5025 12.3545C62.6411 11.2909 61.431 10.5667 60.0867 10.3101C58.7424 10.0534 57.3506 10.2811 56.158 10.9526C55.2882 11.4424 54.5654 12.1452 54.0525 12.9874C53.7356 13.5079 53.1086 13.8063 52.5375 13.5936V13.5936Z" fill="#2A2424" stroke="#2A2424" stroke-width="4" mask="url(#path-8-inside-4_3_45)"/>
</svg>
