<svg width="123" height="27" viewBox="0 0 123 27" fill="none" xmlns="http://www.w3.org/2000/svg">
<mask id="mask0_36_78" style="mask-type:luminance" maskUnits="userSpaceOnUse" x="10" y="19" width="15" height="6">
<path d="M24.2589 20.0108C24.6636 20.3443 24.7242 20.9463 24.3543 21.318C23.5938 22.0824 22.7149 22.7223 21.7497 23.212C20.5015 23.8451 19.1361 24.2134 17.739 24.2939C16.3418 24.3743 14.9431 24.1651 13.6306 23.6793C12.6156 23.3037 11.669 22.7689 10.8258 22.0968C10.4157 21.77 10.4068 21.1651 10.7705 20.7873C11.1342 20.4095 11.7323 20.4031 12.1493 20.7211C12.799 21.2164 13.5201 21.6137 14.2897 21.8985C15.3568 22.2934 16.4939 22.4635 17.6298 22.3981C18.7657 22.3327 19.8759 22.0333 20.8905 21.5185C21.6224 21.1473 22.2931 20.6699 22.8817 20.1032C23.2594 19.7396 23.8543 19.6773 24.2589 20.0108Z" fill="white" fill-opacity="0.6"/>
</mask>
<g mask="url(#mask0_36_78)">
<path d="M24.2589 20.0108C24.6636 20.3443 24.7242 20.9463 24.3543 21.318C23.5938 22.0824 22.7149 22.7223 21.7497 23.212C20.5015 23.8451 19.1361 24.2134 17.739 24.2939C16.3418 24.3743 14.9431 24.1651 13.6306 23.6793C12.6156 23.3037 11.669 22.7689 10.8258 22.0968C10.4157 21.77 10.4068 21.1651 10.7705 20.7873C11.1342 20.4095 11.7323 20.4031 12.1493 20.7211C12.799 21.2164 13.5201 21.6137 14.2897 21.8985C15.3568 22.2934 16.4939 22.4635 17.6298 22.3981C18.7657 22.3327 19.8759 22.0333 20.8905 21.5185C21.6224 21.1473 22.2931 20.6699 22.8817 20.1032C23.2594 19.7396 23.8543 19.6773 24.2589 20.0108Z" fill="white" fill-opacity="0.6" stroke="#4286F5" stroke-width="3.43409"/>
</g>
<mask id="mask1_36_78" style="mask-type:luminance" maskUnits="userSpaceOnUse" x="7" y="9" width="3" height="8">
<path d="M8.25667 16.8244C7.79907 16.9617 7.31299 16.7024 7.21517 16.2348C7.00195 15.2155 6.94641 14.1678 7.05206 13.1284C7.15771 12.089 7.42293 11.0738 7.83689 10.1184C8.0268 9.67997 8.55511 9.52382 8.97573 9.7504C9.39635 9.97691 9.54918 10.5002 9.36697 10.9418C9.05633 11.6947 8.8559 12.4901 8.77324 13.3034C8.69056 14.1166 8.72685 14.936 8.87965 15.736C8.96928 16.2053 8.71427 16.6871 8.25667 16.8244Z" fill="white" fill-opacity="0.6"/>
</mask>
<g mask="url(#mask1_36_78)">
<path d="M8.25667 16.8244C7.79907 16.9617 7.31299 16.7024 7.21517 16.2348C7.00195 15.2155 6.94641 14.1678 7.05206 13.1284C7.15771 12.089 7.42293 11.0738 7.83689 10.1184C8.0268 9.67997 8.55511 9.52382 8.97573 9.7504C9.39635 9.97691 9.54918 10.5002 9.36697 10.9418C9.05633 11.6947 8.8559 12.4901 8.77324 13.3034C8.69056 14.1166 8.72685 14.936 8.87965 15.736C8.96928 16.2053 8.71427 16.6871 8.25667 16.8244Z" fill="white" fill-opacity="0.6" stroke="#34A853" stroke-width="3.43409"/>
</g>
<mask id="mask2_36_78" style="mask-type:luminance" maskUnits="userSpaceOnUse" x="12" y="4" width="12" height="4">
<path d="M12.3396 6.30963C12.0652 5.86269 12.2036 5.27357 12.6741 5.04216C14.353 4.21661 16.2335 3.86811 18.1083 4.04483C19.9831 4.22155 21.7654 4.9153 23.2604 6.04001C23.6795 6.35528 23.7053 6.95987 23.3523 7.34767C22.9993 7.73548 22.4015 7.75856 21.9758 7.45238C20.7904 6.59992 19.395 6.07358 17.9301 5.93551C16.4652 5.79743 14.9961 6.05375 13.6723 6.66971C13.1969 6.89094 12.6139 6.75656 12.3396 6.30963Z" fill="white" fill-opacity="0.6"/>
</mask>
<g mask="url(#mask2_36_78)">
<path d="M12.3396 6.30963C12.0652 5.86269 12.2036 5.27357 12.6741 5.04216C14.353 4.21661 16.2335 3.86811 18.1083 4.04483C19.9831 4.22155 21.7654 4.9153 23.2604 6.04001C23.6795 6.35528 23.7053 6.95987 23.3523 7.34767C22.9993 7.73548 22.4015 7.75856 21.9758 7.45238C20.7904 6.59992 19.395 6.07358 17.9301 5.93551C16.4652 5.79743 14.9961 6.05375 13.6723 6.66971C13.1969 6.89094 12.6139 6.75656 12.3396 6.30963Z" fill="white" fill-opacity="0.6" stroke="#FABC05" stroke-width="3.43409"/>
</g>
<mask id="mask3_36_78" style="mask-type:luminance" maskUnits="userSpaceOnUse" x="8" y="21" width="19" height="6">
<path d="M25.6451 21.7074C26.1432 22.118 26.2178 22.859 25.7625 23.3165C24.8264 24.2574 23.7446 25.045 22.5565 25.6477C21.0202 26.427 19.3395 26.8804 17.6198 26.9794C15.9 27.0784 14.1784 26.8209 12.5629 26.223C11.3135 25.7606 10.1484 25.1024 9.11046 24.2751C8.60573 23.8728 8.5948 23.1282 9.04244 22.6632C9.49008 22.1982 10.2263 22.1903 10.7396 22.5817C11.5393 23.1914 12.4269 23.6804 13.3741 24.031C14.6876 24.5171 16.0873 24.7264 17.4854 24.646C18.8836 24.5655 20.2501 24.1969 21.499 23.5633C22.3998 23.1063 23.2254 22.5187 23.9499 21.8212C24.4148 21.3736 25.1471 21.2969 25.6451 21.7074Z" fill="white"/>
</mask>
<g mask="url(#mask3_36_78)">
<path d="M25.6451 21.7074C26.1432 22.118 26.2178 22.859 25.7625 23.3165C24.8264 24.2574 23.7446 25.045 22.5565 25.6477C21.0202 26.427 19.3395 26.8804 17.6198 26.9794C15.9 27.0784 14.1784 26.8209 12.5629 26.223C11.3135 25.7606 10.1484 25.1024 9.11046 24.2751C8.60573 23.8728 8.5948 23.1282 9.04244 22.6632C9.49008 22.1982 10.2263 22.1903 10.7396 22.5817C11.5393 23.1914 12.4269 23.6804 13.3741 24.031C14.6876 24.5171 16.0873 24.7264 17.4854 24.646C18.8836 24.5655 20.2501 24.1969 21.499 23.5633C22.3998 23.1063 23.2254 22.5187 23.9499 21.8212C24.4148 21.3736 25.1471 21.2969 25.6451 21.7074Z" stroke="#4286F5" stroke-width="4"/>
</g>
<mask id="mask4_36_78" style="mask-type:luminance" maskUnits="userSpaceOnUse" x="4" y="8" width="4" height="10">
<path d="M5.94819 17.7854C5.38494 17.9543 4.78663 17.6352 4.66622 17.0596C4.40377 15.805 4.33541 14.5154 4.46545 13.236C4.5955 11.9566 4.92195 10.7071 5.43148 9.53098C5.66524 8.99138 6.31553 8.79918 6.83326 9.07808C7.351 9.35688 7.53911 10.001 7.31483 10.5446C6.93247 11.4713 6.68577 12.4503 6.58402 13.4514C6.48226 14.4524 6.52692 15.461 6.715 16.4457C6.82532 17.0233 6.51144 17.6164 5.94819 17.7854Z" fill="white"/>
</mask>
<g mask="url(#mask4_36_78)">
<path d="M5.94819 17.7854C5.38494 17.9543 4.78663 17.6352 4.66622 17.0596C4.40377 15.805 4.33541 14.5154 4.46545 13.236C4.5955 11.9566 4.92195 10.7071 5.43148 9.53098C5.66524 8.99138 6.31553 8.79918 6.83326 9.07808C7.351 9.35688 7.53911 10.001 7.31483 10.5446C6.93247 11.4713 6.68577 12.4503 6.58402 13.4514C6.48226 14.4524 6.52692 15.461 6.715 16.4457C6.82532 17.0233 6.51144 17.6164 5.94819 17.7854Z" stroke="#34A853" stroke-width="4"/>
</g>
<mask id="mask5_36_78" style="mask-type:luminance" maskUnits="userSpaceOnUse" x="10" y="2" width="15" height="5">
<path d="M10.9738 4.84289C10.6361 4.29276 10.8064 3.56762 11.3856 3.28278C13.4521 2.26663 15.7668 1.83766 18.0744 2.05518C20.3821 2.2727 22.5759 3.12663 24.4161 4.51102C24.9319 4.89908 24.9637 5.64326 24.5291 6.1206C24.0946 6.59794 23.3588 6.62635 22.8348 6.24948C21.3757 5.2002 19.6582 4.55234 17.8551 4.38239C16.052 4.21243 14.2436 4.52793 12.6142 5.2861C12.029 5.55841 11.3114 5.39301 10.9738 4.84289Z" fill="white"/>
</mask>
<g mask="url(#mask5_36_78)">
<path d="M10.9738 4.84289C10.6361 4.29276 10.8064 3.56762 11.3856 3.28278C13.4521 2.26663 15.7668 1.83766 18.0744 2.05518C20.3821 2.2727 22.5759 3.12663 24.4161 4.51102C24.9319 4.89908 24.9637 5.64326 24.5291 6.1206C24.0946 6.59794 23.3588 6.62635 22.8348 6.24948C21.3757 5.2002 19.6582 4.55234 17.8551 4.38239C16.052 4.21243 14.2436 4.52793 12.6142 5.2861C12.029 5.55841 11.3114 5.39301 10.9738 4.84289Z" stroke="#FABC05" stroke-width="4"/>
</g>
<mask id="mask6_36_78" style="mask-type:luminance" maskUnits="userSpaceOnUse" x="9" y="20" width="17" height="6">
<path d="M25.2202 20.8302C25.6708 21.2017 25.7383 21.8721 25.3264 22.286C24.4794 23.1373 23.5007 23.8498 22.4258 24.3951C21.0358 25.1002 19.5152 25.5104 17.9593 25.6C16.4033 25.6896 14.8457 25.4566 13.3841 24.9156C12.2537 24.4973 11.1996 23.9018 10.2605 23.1533C9.80388 22.7893 9.79399 22.1156 10.199 21.6949C10.604 21.2742 11.2701 21.2671 11.7345 21.6212C12.458 22.1728 13.261 22.6152 14.118 22.9324C15.3064 23.3722 16.5728 23.5616 17.8377 23.4888C19.1027 23.416 20.3391 23.0825 21.469 22.5093C22.284 22.0958 23.0309 21.5642 23.6864 20.9331C24.107 20.5282 24.7696 20.4588 25.2202 20.8302Z" fill="white" fill-opacity="0.6"/>
</mask>
<g mask="url(#mask6_36_78)">
<path d="M25.2202 20.8302C25.6708 21.2017 25.7383 21.8721 25.3264 22.286C24.4794 23.1373 23.5007 23.8498 22.4258 24.3951C21.0358 25.1002 19.5152 25.5104 17.9593 25.6C16.4033 25.6896 14.8457 25.4566 13.3841 24.9156C12.2537 24.4973 11.1996 23.9018 10.2605 23.1533C9.80388 22.7893 9.79399 22.1156 10.199 21.6949C10.604 21.2742 11.2701 21.2671 11.7345 21.6212C12.458 22.1728 13.261 22.6152 14.118 22.9324C15.3064 23.3722 16.5728 23.5616 17.8377 23.4888C19.1027 23.416 20.3391 23.0825 21.469 22.5093C22.284 22.0958 23.0309 21.5642 23.6864 20.9331C24.107 20.5282 24.7696 20.4588 25.2202 20.8302Z" fill="white" fill-opacity="0.6" stroke="#4286F5" stroke-width="3.43409"/>
</g>
<mask id="mask7_36_78" style="mask-type:luminance" maskUnits="userSpaceOnUse" x="5" y="9" width="4" height="9">
<path d="M6.89948 17.2818C6.38988 17.4346 5.84856 17.1459 5.73962 16.6251C5.50217 15.49 5.44032 14.3232 5.55797 13.1657C5.67564 12.0082 5.97099 10.8777 6.43199 9.81362C6.64348 9.32542 7.23183 9.15153 7.70024 9.40386C8.16866 9.6561 8.33885 10.2389 8.13594 10.7307C7.79 11.5691 7.5668 12.4548 7.47474 13.3606C7.38267 14.2662 7.42308 15.1788 7.59324 16.0697C7.69306 16.5922 7.40907 17.1289 6.89948 17.2818Z" fill="white" fill-opacity="0.6"/>
</mask>
<g mask="url(#mask7_36_78)">
<path d="M6.89948 17.2818C6.38988 17.4346 5.84856 17.1459 5.73962 16.6251C5.50217 15.49 5.44032 14.3232 5.55797 13.1657C5.67564 12.0082 5.97099 10.8777 6.43199 9.81362C6.64348 9.32542 7.23183 9.15153 7.70024 9.40386C8.16866 9.6561 8.33885 10.2389 8.13594 10.7307C7.79 11.5691 7.5668 12.4548 7.47474 13.3606C7.38267 14.2662 7.42308 15.1788 7.59324 16.0697C7.69306 16.5922 7.40907 17.1289 6.89948 17.2818Z" fill="white" fill-opacity="0.6" stroke="#34A853" stroke-width="3.43409"/>
</g>
<mask id="mask8_36_78" style="mask-type:luminance" maskUnits="userSpaceOnUse" x="11" y="3" width="14" height="5">
<path d="M11.9464 5.57209C11.6408 5.07436 11.7949 4.41829 12.3189 4.16059C14.1886 3.24123 16.2828 2.85312 18.3706 3.04992C20.4585 3.24672 22.4433 4.01931 24.1082 5.27183C24.5749 5.62293 24.6037 6.29622 24.2105 6.72809C23.8173 7.15996 23.1516 7.18567 22.6776 6.8447C21.3574 5.89536 19.8035 5.30922 18.1722 5.15545C16.5408 5.00168 14.9047 5.28713 13.4305 5.97308C12.901 6.21945 12.2518 6.06981 11.9464 5.57209Z" fill="white" fill-opacity="0.6"/>
</mask>
<g mask="url(#mask8_36_78)">
<path d="M11.9464 5.57209C11.6408 5.07436 11.7949 4.41829 12.3189 4.16059C14.1886 3.24123 16.2828 2.85312 18.3706 3.04992C20.4585 3.24672 22.4433 4.01931 24.1082 5.27183C24.5749 5.62293 24.6037 6.29622 24.2105 6.72809C23.8173 7.15996 23.1516 7.18567 22.6776 6.8447C21.3574 5.89536 19.8035 5.30922 18.1722 5.15545C16.5408 5.00168 14.9047 5.28713 13.4305 5.97308C12.901 6.21945 12.2518 6.06981 11.9464 5.57209Z" fill="white" fill-opacity="0.6" stroke="#FABC05" stroke-width="3.43409"/>
</g>
<path d="M41.0275 21.0201C40.5341 21.0201 40.2008 20.8934 40.0275 20.6401C39.8541 20.3868 39.7675 20.1068 39.7675 19.8001V6.32006C39.7675 6.0134 39.8541 5.74006 40.0275 5.50006C40.2008 5.24673 40.5341 5.12006 41.0275 5.12006H47.9875C48.4808 5.12006 48.7408 5.4534 48.7675 6.12006C48.7941 6.80006 48.5341 7.14008 47.9875 7.14008H42.1275V19.0001H48.3475C48.8408 19.0001 49.0941 19.3268 49.1075 19.9801C49.1341 20.6734 48.8808 21.0201 48.3475 21.0201H41.0275Z" fill="white"/>
<path d="M33.3822 11.8601C33.7289 11.8601 34.0889 11.9334 34.4622 12.0801C34.8355 12.2268 35.1955 12.4201 35.5422 12.6601H35.5222C35.8689 12.9001 36.1355 13.2268 36.3222 13.6401C36.5089 14.0534 36.6022 14.5268 36.6022 15.0601V17.8001C36.6022 18.8801 36.2422 19.6868 35.5222 20.2201C35.1755 20.4734 34.8155 20.6734 34.4422 20.8201C34.0822 20.9534 33.7289 21.0201 33.3822 21.0201H29.0222C28.6755 21.0201 28.3155 20.9534 27.9422 20.8201C27.5822 20.6734 27.2289 20.4734 26.8822 20.2201C26.1622 19.6868 25.8022 18.8801 25.8022 17.8001V16.4801C25.8022 15.8534 26.1955 15.5401 26.9822 15.5401C27.7822 15.5401 28.1822 15.8534 28.1822 16.4801V17.6401C28.1822 17.9868 28.2822 18.3001 28.4822 18.5801C28.6822 18.8601 29.0289 19.0001 29.5222 19.0001H32.8822C33.3755 19.0001 33.7222 18.8601 33.9222 18.5801C34.1222 18.3001 34.2222 17.9868 34.2222 17.6401V15.2201C34.2222 14.8868 34.1222 14.5801 33.9222 14.3001C33.7222 14.0068 33.3755 13.8601 32.8822 13.8601H29.0222C28.3289 13.8601 27.6155 13.6067 26.8822 13.1001C26.1622 12.5401 25.8022 11.7334 25.8022 10.6801V8.30008C25.8022 7.76678 25.8955 7.30008 26.0822 6.90006C26.2689 6.48673 26.5355 6.1534 26.8822 5.90006H26.8622C27.2089 5.6734 27.5689 5.48673 27.9422 5.34006C28.3155 5.1934 28.6755 5.12006 29.0222 5.12006H33.3822C33.7289 5.12006 34.0889 5.1934 34.4622 5.34006C34.8355 5.48673 35.1955 5.6734 35.5422 5.90006H35.5222C35.8689 6.1534 36.1355 6.48673 36.3222 6.90006C36.5089 7.30008 36.6022 7.76678 36.6022 8.30008V9.48008C36.6022 10.1068 36.2022 10.4201 35.4022 10.4201C34.6155 10.4201 34.2222 10.1068 34.2222 9.48008V8.48008C34.2222 8.14678 34.1222 7.84008 33.9222 7.56008C33.7222 7.28008 33.3755 7.14008 32.8822 7.14008H29.5222C29.0289 7.14008 28.6822 7.28008 28.4822 7.56008C28.2822 7.84008 28.1822 8.14678 28.1822 8.48008V10.5201C28.1822 10.8667 28.2822 11.1801 28.4822 11.4601C28.6822 11.7267 29.0289 11.8601 29.5222 11.8601H33.3822Z" fill="white"/>
<path d="M7.06138 19.0001C7.55472 19.0001 7.90139 18.8601 8.10139 18.5801C8.30139 18.3001 8.40139 17.9868 8.40139 17.6401V8.48008C8.40139 8.14678 8.30139 7.84008 8.10139 7.56008C7.90139 7.28008 7.55472 7.14008 7.06138 7.14008H2.38139L2.36139 20.1801C2.36139 20.4734 2.24805 20.7068 2.02139 20.8801C1.79472 21.0534 1.73471 21.0001 1.40138 21.0001C-0.0986345 21.0001 0.00138552 21.0001 0.00138452 20.1801C0.00138352 19.3601 0.00138452 6.32006 0.00138452 6.32006C0.00138452 5.84006 0.121385 5.52006 0.361385 5.36006C0.614719 5.20006 0.914719 5.12006 1.26139 5.12006H7.56138C7.90805 5.12006 8.26805 5.1934 8.64139 5.34006C9.01472 5.48673 9.37472 5.6734 9.72138 5.90006H9.70138C10.0481 6.1534 10.3147 6.48673 10.5014 6.90006C10.6881 7.30008 10.7814 7.76678 10.7814 8.30008V17.8001C10.7814 18.8801 10.4214 19.6868 9.70138 20.2201C9.35472 20.4734 8.99472 20.6734 8.62139 20.8201C8.26139 20.9534 7.90805 21.0201 7.56138 21.0201L1.32234 20.9295C1.09567 20.9295 0.915668 20.8362 0.782338 20.6495C0.662338 20.4628 0.602338 20.2162 0.602338 19.9095C0.602338 19.2428 0.889009 18.9095 1.46234 18.9095L7.06138 19.0001Z" fill="white"/>
<path d="M46.7475 13.9201C47.0808 13.6001 47.2475 13.2067 47.2475 12.7401C47.2475 12.2734 47.0808 11.8801 46.7475 11.5601C46.4275 11.2401 46.0342 11.0801 45.5675 11.0801C45.1142 11.0801 44.7275 11.2401 44.4075 11.5601C44.0875 11.8801 43.9275 12.2734 43.9275 12.7401C43.9275 13.2067 44.0875 13.6001 44.4075 13.9201C44.7275 14.2401 45.1142 14.4001 45.5675 14.4001C46.0342 14.4001 46.4275 14.2401 46.7475 13.9201Z" fill="#EA4235"/>
<mask id="mask9_36_78" style="mask-type:luminance" maskUnits="userSpaceOnUse" x="51" y="5" width="16" height="16">
<path d="M51.9384 10.5932C51.3673 10.3805 51.0703 9.74027 51.3595 9.20377C52.0737 7.87877 53.1515 6.77511 54.4761 6.02923C56.123 5.10191 58.0449 4.78757 59.9014 5.14194C61.7578 5.4963 63.4289 6.49648 64.6183 7.96517C65.8078 9.43397 66.4388 11.2764 66.3997 13.1659C66.3605 15.0555 65.6536 16.8702 64.4043 18.2883C63.155 19.7065 61.4439 20.6365 59.5743 20.9136C57.7048 21.1907 55.7975 20.797 54.1906 19.8022C52.898 19.0021 51.8669 17.8546 51.2081 16.5012C50.9415 15.9532 51.2648 15.3258 51.8442 15.137C52.4236 14.9482 53.0377 15.2723 53.3328 15.8054C53.8103 16.6682 54.5034 17.4004 55.3521 17.9258C56.5158 18.6462 57.897 18.9313 59.2508 18.7307C60.6046 18.53 61.8437 17.8565 62.7484 16.8295C63.653 15.8026 64.1649 14.4885 64.1933 13.1202C64.2217 11.7519 63.7647 10.4177 62.9034 9.35407C62.042 8.29047 60.8319 7.56627 59.4876 7.30967C58.1433 7.05297 56.7515 7.28067 55.5589 7.95217C54.6891 8.44197 53.9663 9.14477 53.4534 9.98697C53.1365 10.5075 52.5095 10.8059 51.9384 10.5932Z" fill="white"/>
</mask>
<g mask="url(#mask9_36_78)">
<path d="M51.9384 10.5932C51.3673 10.3805 51.0703 9.74027 51.3595 9.20377C52.0737 7.87877 53.1515 6.77511 54.4761 6.02923C56.123 5.10191 58.0449 4.78757 59.9014 5.14194C61.7578 5.4963 63.4289 6.49648 64.6183 7.96517C65.8078 9.43397 66.4388 11.2764 66.3997 13.1659C66.3605 15.0555 65.6536 16.8702 64.4043 18.2883C63.155 19.7065 61.4439 20.6365 59.5743 20.9136C57.7048 21.1907 55.7975 20.797 54.1906 19.8022C52.898 19.0021 51.8669 17.8546 51.2081 16.5012C50.9415 15.9532 51.2648 15.3258 51.8442 15.137C52.4236 14.9482 53.0377 15.2723 53.3328 15.8054C53.8103 16.6682 54.5034 17.4004 55.3521 17.9258C56.5158 18.6462 57.897 18.9313 59.2508 18.7307C60.6046 18.53 61.8437 17.8565 62.7484 16.8295C63.653 15.8026 64.1649 14.4885 64.1933 13.1202C64.2217 11.7519 63.7647 10.4177 62.9034 9.35407C62.042 8.29047 60.8319 7.56627 59.4876 7.30967C58.1433 7.05297 56.7515 7.28067 55.5589 7.95217C54.6891 8.44197 53.9663 9.14477 53.4534 9.98697C53.1365 10.5075 52.5095 10.8059 51.9384 10.5932Z" fill="white" stroke="white" stroke-width="4"/>
</g>
<path d="M122.975 4.36174C122.935 4.17474 122.818 4.05518 122.63 4.01839H122.615L122.599 4.01533C122.59 4.01533 122.578 4.01533 122.569 4.0092C122.538 4.00307 122.51 4 122.482 4C122.279 4 122.122 4.06744 121.996 4.21153L121.721 4.52422C121.324 5.00245 120.97 5.56652 120.624 6.1122C120.427 6.42489 120.242 6.71919 120.051 6.99816C119.58 7.68792 118.902 8.73942 118.184 9.85224C117.238 11.3145 116.098 13.0834 115.658 13.6444V13.6107C115.658 13.5739 115.661 13.5402 115.664 13.5034C115.667 13.4605 115.67 13.4175 115.67 13.3746C115.765 12.2986 115.929 11.2348 116.089 10.2416C116.144 9.92888 116.194 9.61312 116.243 9.30043C116.292 9 116.342 8.69651 116.391 8.39608C116.413 8.30104 116.419 8.20294 116.425 8.10791C116.428 8.07112 116.431 8.03127 116.434 7.99142C116.434 7.68179 116.286 7.53771 115.978 7.53771C115.781 7.53771 115.636 7.60822 115.534 7.75843C115.279 8.20907 115.008 8.7057 114.749 9.23912C114.838 8.77928 114.912 8.3409 114.961 7.89025C114.974 7.78909 114.986 7.67566 114.986 7.55917C114.986 7.44267 114.974 7.33538 114.961 7.22808V7.21888L114.955 7.20662C114.912 7.03495 114.801 6.94911 114.622 6.94911H114.555C114.351 6.97057 114.274 7.05334 114.271 7.25874C114.259 7.34457 114.259 7.41508 114.259 7.49479V7.6634C114.259 7.82281 114.231 8.00368 114.206 8.16309C114.077 8.97548 113.898 9.78479 113.707 10.6156C113.43 11.8909 113.113 13.3685 112.838 14.8216C112.376 15.2293 110.774 16.4372 110.278 16.6456C110.238 16.6579 110.204 16.6671 110.189 16.6671C109.982 16.6671 109.85 16.1674 109.8 15.9804L109.791 15.9497V15.9313C109.779 15.9129 109.77 15.8915 109.763 15.8731C109.782 15.8639 109.803 15.8516 109.819 15.8424C110.047 15.6891 110.263 15.5481 110.478 15.404C111.15 14.9626 111.785 14.5426 112.429 14.0705L112.438 14.0644L112.444 14.0552L112.456 14.049C112.493 14.0215 112.586 13.954 112.586 13.8375V13.7456L112.558 13.7057C112.521 13.6505 112.444 13.5861 112.308 13.5861C112.216 13.5861 112.08 13.6168 111.988 13.6873C111.489 14.0491 110.956 14.3924 110.441 14.7235C110.173 14.8952 109.905 15.0668 109.637 15.2446C109.582 15.0055 109.532 14.6744 109.532 14.4905C109.532 14.4537 109.532 14.4292 109.539 14.4047L109.545 14.3863V14.3372C109.545 14.1717 109.391 14.046 109.197 14.046C109.036 14.046 108.876 14.1563 108.876 14.4077V14.4231C108.882 14.5917 108.895 14.7633 108.913 14.9289C108.346 15.4807 106.454 16.195 105.555 16.195C105.357 16.195 105.123 16.1643 105.123 16.0172C105.123 15.8823 105.237 15.6738 105.471 15.3795C105.496 15.3795 105.521 15.3826 105.552 15.3857C105.61 15.3948 105.693 15.4071 105.792 15.4071C105.847 15.4071 105.9 15.3979 105.958 15.3887L106.023 15.3765H106.041C106.642 15.214 107.197 14.6744 107.043 14.0766V14.0644L107.034 14.0521C106.944 13.8559 106.71 13.7394 106.408 13.7394C106.346 13.7394 106.273 13.7394 106.199 13.7578C105.869 13.8345 105.508 14.233 105.271 14.4997C105.206 14.5702 105.126 14.6591 105.102 14.6744C105.086 14.6867 105.074 14.6928 105.059 14.699C104.991 14.7357 104.843 14.8093 104.843 14.9902V15.0147C104.633 15.2078 104.384 15.4623 104.122 15.7321C103.385 16.4862 102.467 17.4243 101.826 17.6327L101.802 17.6389C101.777 17.645 101.737 17.6542 101.722 17.6542C101.709 17.6542 101.691 17.6327 101.675 17.5438C101.666 17.4979 101.666 17.4365 101.666 17.363C101.666 16.9368 102.079 15.0178 102.344 14.6836C103.201 13.6475 104.717 11.569 105.234 9.30656C105.28 9.13795 105.305 8.98161 105.305 8.82833V8.75782C105.287 8.49111 105.142 8.34396 104.883 8.32863H104.846C104.498 8.32863 104.316 8.57082 104.156 8.78234L104.122 8.83139C103.262 10.0852 102.125 13.0742 101.645 14.4813C101.632 14.5181 101.617 14.561 101.602 14.5947C101.115 14.5058 100.628 14.4629 100.116 14.4629H100.092L100.101 14.4231C100.123 14.3158 100.15 14.2146 100.178 14.1134C100.206 14.0184 100.23 13.9234 100.252 13.8253C100.884 11.5628 101.605 8.98774 101.833 6.45248L101.839 6.37278C101.848 6.24709 101.86 6.1122 101.86 5.98345C101.86 5.729 101.86 4.9626 101.213 4.92581H101.21C101.05 4.92581 100.908 4.95953 100.773 5.02698C100.646 5.08522 100.505 5.17719 100.363 5.29062L100.354 5.27529V5.26609C100.366 5.22931 100.403 5.168 100.434 5.12201C100.486 5.03617 100.535 4.95953 100.548 4.87676V4.83078C100.548 4.6591 100.384 4.62232 100.332 4.61006H100.317H100.283C100.018 4.61006 99.9315 4.80319 99.8822 4.90742C99.873 4.92888 99.8607 4.95647 99.8514 4.9718C99.2999 5.01778 98.6898 5.85776 98.4526 6.2195C97.4266 7.62661 96.4714 9.19926 95.5409 11.0233C95.3899 11.3299 95.242 11.6364 95.0972 11.943C94.6905 12.7983 94.2684 13.6781 93.7384 14.4905C93.5967 14.7174 93.495 14.9044 93.4211 15.0791C93.3502 15.2048 93.2855 15.2477 93.1438 15.2692C92.7956 15.3427 92.4659 15.4163 92.1455 15.4929C92.4474 15.0454 92.8203 14.5518 93.304 14.1318C93.3441 14.1012 93.3903 14.0644 93.4334 14.0123C93.4858 13.9632 93.5074 13.9019 93.495 13.8345C93.4796 13.7456 93.3934 13.6781 93.2824 13.6781C93.267 13.6781 93.2485 13.6781 93.2301 13.6812C93.0267 13.721 92.5984 14.1717 92.2965 14.512C92.3489 14.2667 92.3951 14.0153 92.4259 13.7731V13.7302C92.4351 13.6658 92.4444 13.5953 92.4259 13.5218C92.3982 13.3807 92.2934 13.301 92.1393 13.301H92.1116L92.0592 13.3102C91.973 13.3286 91.8651 13.3624 91.7758 13.4758C91.6895 13.6015 91.594 13.7701 91.4861 13.9693C91.2366 14.4139 90.8607 15.0914 90.5618 15.1496H90.5433C90.5433 15.1496 90.5341 15.1312 90.531 15.1097C90.5002 14.9534 90.5526 14.6898 90.5741 14.5886V14.5641C90.6018 14.4752 90.6327 14.3679 90.6142 14.2728C90.5895 14.1533 90.494 14.0828 90.3646 14.0828C90.3554 14.0828 90.343 14.0858 90.3307 14.0858L90.2814 14.092C90.0781 14.1288 89.961 14.2054 89.9363 14.3158C89.9209 14.325 89.9055 14.3372 89.8901 14.3495C89.7823 14.4537 89.5512 14.6622 89.3478 14.843C89.3571 14.7879 89.3663 14.7296 89.3663 14.6714C89.3694 14.5457 89.3201 14.466 89.277 14.42C89.2123 14.3556 89.1198 14.3188 89.0058 14.3188C88.9688 14.3188 88.9257 14.325 88.8826 14.3342C88.7439 14.3587 88.6176 14.4292 88.5036 14.5212C88.7994 13.5187 89.1445 11.8633 89.0089 11.1643C88.9596 10.9896 88.861 10.9068 88.7162 10.9068C88.7008 10.9068 88.6885 10.9068 88.6731 10.9099H88.6546L88.6022 10.9252C88.4666 10.9497 88.3526 11.0325 88.2725 11.1643C87.7641 12.0779 87.5454 15.4776 87.5145 16.3391V16.382C87.5145 16.4678 87.5145 16.5138 87.4776 16.5628C87.4314 16.6088 87.4129 16.6763 87.4252 16.7407C87.4375 16.805 87.4899 16.9123 87.7056 16.9123C87.7549 16.9123 87.798 16.9062 87.8227 16.9031C87.9397 16.8817 88.0199 16.8142 88.0753 16.7008C88.0784 16.6977 88.0846 16.6947 88.0876 16.6916C88.1 16.6793 88.1123 16.6671 88.1215 16.6579C88.3033 16.4923 88.4789 16.3023 88.6669 16.0632C88.7162 15.9988 88.7747 15.9405 88.8425 15.8853C89.2307 15.5359 89.5851 15.217 89.9486 14.8982C89.9332 15.0055 89.9271 15.1159 89.9486 15.214C89.9918 15.4531 90.1674 15.5849 90.4385 15.5849C90.4786 15.5849 90.5217 15.5819 90.571 15.5757H90.5864L90.6388 15.5604C90.9839 15.4991 91.2088 15.26 91.3629 15.0607C91.4676 14.9258 91.5878 14.7388 91.708 14.5426C91.6494 14.8522 91.5816 15.1557 91.5169 15.447C91.4954 15.5328 91.4707 15.588 91.4276 15.6493C91.4214 15.6585 91.4153 15.6677 91.4091 15.6769C89.7946 16.0969 88.442 16.5935 87.3913 17.1453C87.1695 17.2526 87.0277 17.3446 87.0031 17.4764V17.4887L87 17.504C87 17.5592 87.0216 17.6419 87.1232 17.7124C87.1879 17.7492 87.2557 17.7676 87.3204 17.7676H87.3482C87.6255 17.7676 87.9983 17.6052 88.1801 17.4979C88.214 17.4795 88.254 17.4549 88.2941 17.4304C88.3311 17.4059 88.3711 17.3783 88.3958 17.3691C89.2153 17.0227 90.0719 16.7161 90.9562 16.4525C90.722 16.9031 90.4447 17.5316 90.3646 18.0956V18.114C90.3584 18.1846 90.3492 18.2735 90.3646 18.3593C90.3985 18.5279 90.5187 18.6291 90.6789 18.6291H90.6974L90.7128 18.6229L90.7651 18.6107C90.9993 18.5708 91.1133 18.3654 91.1934 18.2121C91.4584 17.7492 91.6957 16.9399 91.8928 16.1919C92.204 16.1091 92.5337 16.0294 92.9189 15.9436C92.0962 17.4641 91.3167 19.0399 90.7189 20.3948C90.682 20.45 90.682 20.5083 90.682 20.5297V20.5727C90.682 20.7106 90.8052 20.821 90.9623 20.821H90.9901C91.1349 20.821 91.2674 20.7443 91.3567 20.6125C91.4091 20.5328 91.4553 20.45 91.5046 20.3642C91.5354 20.3121 91.5662 20.26 91.5971 20.2048L91.8281 19.7572C92.204 19.0307 92.5861 18.2857 92.9774 17.5438L92.8665 17.9638L92.8603 17.9822V18.0313C92.8603 18.16 92.9712 18.2673 93.1099 18.2673H93.1931C93.4026 18.2673 93.4858 18.1079 93.5351 17.973V17.9638L93.5413 17.9546C93.6953 17.2649 93.911 16.5475 94.1914 15.7658C94.2129 15.6922 94.2222 15.6738 94.3393 15.6401C96.305 15.2753 97.821 15.0852 99.229 15.0208L98.166 18.9632C97.9843 19.6438 97.8025 20.3243 97.6207 20.9896C97.556 21.2502 97.4913 21.5077 97.4296 21.7652C97.2818 22.3752 97.1308 23.0067 96.9521 23.6229L96.9397 23.6567L96.9305 23.6812V23.7364C96.9305 23.9142 97.1 23.9693 97.1616 23.9908L97.1862 24H97.2109C97.4112 24 97.5221 23.9111 97.5837 23.7088L98.7823 19.1931L99.9408 15.0055V14.9963H99.9439H99.9593C100.415 14.9963 100.797 15.0178 101.173 15.0668C101.173 15.217 101.284 15.2722 101.377 15.2968C101.186 15.9129 100.921 16.8142 100.921 17.3844V17.4243C100.936 17.927 101.201 18.2029 101.66 18.2029C101.944 18.2029 102.273 18.1018 102.566 17.9301C103.074 17.6573 103.764 16.9338 104.378 16.2961C104.424 16.2471 104.47 16.2011 104.516 16.1521C104.544 16.2839 104.593 16.3574 104.599 16.3697C104.778 16.6334 105.123 16.7713 105.595 16.7713C105.974 16.7713 106.359 16.6824 106.476 16.6426C107 16.523 108.275 16.054 109.009 15.591V15.6432C109.009 15.6432 108.944 15.6891 108.888 15.7229L107.841 16.3942C107.841 16.3942 107.825 16.4004 107.819 16.4034C107.776 16.4249 107.659 16.4801 107.659 16.618C107.659 16.6395 107.659 16.7008 107.702 16.7529C107.758 16.8296 107.832 16.8694 107.924 16.8694C107.946 16.8694 107.973 16.8633 108.001 16.8602C108.007 16.8602 108.016 16.8602 108.026 16.8602H108.041L108.066 16.8541C108.192 16.8173 108.99 16.3574 109.129 16.2716C109.135 16.2685 109.144 16.2624 109.153 16.2594C109.283 16.6916 109.468 17.2434 110.041 17.2618C110.617 17.2618 111.979 16.2471 112.678 15.6861C112.546 16.4126 112.435 17.0809 112.336 17.7216C112.318 17.8872 112.305 18.0313 112.293 18.1754V18.1907C112.293 18.3194 112.339 18.4114 112.432 18.4635C112.509 18.5156 112.592 18.5156 112.644 18.5156C112.838 18.5156 112.989 18.3838 113.033 18.1815V18.1662L113.036 18.1508C113.036 18.1324 113.036 18.1079 113.039 18.1018L113.048 18.0803V18.0619C113.418 14.9044 114.28 11.7805 115.436 9.3832C115.26 10.3979 115.106 11.3452 114.992 12.3047C114.943 12.6941 114.887 13.0956 114.887 13.5156V13.6321C114.887 13.7578 114.887 13.8896 114.931 14.0307V14.0399L114.937 14.046C115.02 14.2391 115.165 14.3433 115.371 14.3617H115.476C115.695 14.3617 115.886 14.279 116.024 14.1257C116.098 14.0521 116.197 13.954 116.271 13.8498C116.508 13.5739 116.711 13.2551 116.896 12.9516C118.187 10.8578 119.521 8.80687 120.852 6.85714L121.013 6.62416C121.37 6.10607 121.737 5.57572 122.128 5.08829C122.079 5.44697 122.023 5.75659 121.959 6.04169C121.746 7.14224 121.466 8.17842 121.173 9.2759L121.133 9.42918C120.55 11.6732 119.947 13.9908 119.469 16.3268C119.29 17.2526 119.173 18.1723 119.047 19.1931V19.2115C119.047 19.2636 119.047 19.3525 119.118 19.4231L119.124 19.4292L119.133 19.4353C119.207 19.4936 119.293 19.5242 119.383 19.5242C119.414 19.5242 119.444 19.515 119.466 19.512L119.484 19.5058C119.577 19.4936 119.709 19.4445 119.746 19.2544C119.768 19.1625 119.786 19.0582 119.802 18.9264C119.903 18.1815 120.03 17.4335 120.193 16.6487C120.587 14.8093 121.077 12.9516 121.506 11.3544C121.61 10.9681 121.715 10.5849 121.823 10.1987C122.14 9.03985 122.473 7.8412 122.72 6.64255C122.855 6.0233 122.948 5.42551 123 4.81852C123 4.6683 123 4.51502 122.972 4.37094L122.975 4.36174ZM106.464 14.1165C106.476 14.1563 106.476 14.2115 106.476 14.2544C106.476 14.6438 106.045 15.03 105.625 15.03H105.555C105.807 14.6836 106.088 14.3525 106.464 14.1165ZM102.43 13.7548C102.683 13.1171 104.356 9.07664 104.775 8.93869C104.636 10.0914 103.897 11.5904 103.312 12.5622C103.198 12.7124 102.529 13.7946 102.43 13.8375V13.7548ZM88.0199 14.7235C88.026 14.7051 88.0199 14.6806 88.026 14.6683C88.063 14.3372 88.4481 11.3513 88.6638 11.2931C88.6761 11.3176 88.6731 11.3544 88.6823 11.3881C88.7224 12.0196 88.2756 14.3158 88.0353 14.7664L88.0199 14.7235ZM88.0476 15.2722C88.0476 15.2722 88.0599 15.2692 88.063 15.2661C88.0568 15.2784 88.0537 15.2906 88.0476 15.3029V15.2722ZM88.5529 15.7045C88.4974 15.7872 88.1708 16.0662 88.0753 16.1459C88.063 16.1306 88.0537 16.1245 88.0599 16.1153C88.0599 16.1061 88.0568 16.0969 88.0661 16.0877C88.1585 15.7351 88.519 14.6836 88.9288 14.6039C88.935 14.6009 88.938 14.6009 88.9442 14.6009C88.9812 14.6009 89.0058 14.6254 89.0027 14.699C89.049 14.9411 88.6946 15.5052 88.5529 15.7045ZM90.2136 14.4506L90.1643 14.4997C90.1643 14.4813 90.1643 14.466 90.1612 14.4506C90.1458 14.4169 90.115 14.42 90.0996 14.3955C90.115 14.3893 90.1304 14.3832 90.1458 14.3801C90.1551 14.3801 90.1612 14.3801 90.1705 14.3801C90.2075 14.3801 90.229 14.3985 90.2321 14.4139C90.2383 14.4292 90.2321 14.4414 90.2136 14.4537V14.4506ZM90.7651 18.2489L90.759 18.2213C90.6943 17.8841 91.255 16.6947 91.4338 16.3636C91.3413 16.9675 90.9901 17.9516 90.7651 18.2489ZM91.7573 15.8332C91.7388 15.8884 91.7234 15.9436 91.7049 16.0018C91.6125 16.0264 91.5169 16.054 91.4245 16.0785C91.4245 16.0785 91.4245 16.0764 91.4245 16.0723C91.4615 16.0018 91.4954 15.9344 91.5385 15.867C91.5385 15.867 91.7234 15.8179 91.7604 15.8087C91.7604 15.8179 91.7573 15.824 91.7542 15.8332H91.7573ZM99.531 5.64929C98.7638 6.82955 97.9534 7.98222 97.1862 9.14715C97.8702 7.92397 98.5943 6.73145 99.531 5.64929ZM99.4694 14.1441L99.3954 14.4231C99.3892 14.4414 99.3862 14.4568 99.3831 14.469C99.3646 14.4721 99.343 14.4721 99.3215 14.4752C97.6207 14.5334 95.9754 14.7695 94.595 14.9902C94.5611 14.9963 94.5241 15.0025 94.4841 15.0086C94.6813 14.512 94.8661 14.0399 95.1188 13.5739C96.3112 11.3758 97.7193 9.26364 99.4262 7.11772C100.153 6.24402 100.893 5.52054 101.127 5.44696C101.133 5.45616 101.136 5.46842 101.145 5.48375C101.173 5.56959 101.189 5.71367 101.189 5.94053C101.189 6.39117 101.109 7.05947 100.927 8.10484C100.529 10.2232 99.8144 12.8688 99.4694 14.1441Z" fill="#C0C0C0"/>
<line x1="76.5" y1="0.5" x2="76.5" y2="25.5" stroke="white" stroke-opacity="0.1" stroke-linecap="round"/>
</svg>
