<svg width="110" height="25" viewBox="0 0 110 25" fill="none" xmlns="http://www.w3.org/2000/svg">
<mask id="mask0_1_30" style="mask-type:luminance" maskUnits="userSpaceOnUse" x="8" y="19" width="19" height="6">
<path d="M25.6451 19.7074C26.1432 20.118 26.2178 20.859 25.7625 21.3165C24.8264 22.2574 23.7446 23.045 22.5565 23.6477C21.0202 24.427 19.3395 24.8804 17.6198 24.9794C15.9 25.0784 14.1784 24.8209 12.5629 24.223C11.3135 23.7606 10.1484 23.1024 9.11046 22.2751C8.60573 21.8728 8.5948 21.1282 9.04244 20.6632C9.49008 20.1982 10.2263 20.1903 10.7396 20.5817C11.5393 21.1914 12.4269 21.6804 13.3741 22.031C14.6876 22.5171 16.0873 22.7264 17.4854 22.646C18.8836 22.5655 20.2501 22.1969 21.499 21.5633C22.3998 21.1063 23.2254 20.5187 23.9499 19.8212C24.4148 19.3736 25.1471 19.2969 25.6451 19.7074Z" fill="white"/>
</mask>
<g mask="url(#mask0_1_30)">
<path d="M25.6451 19.7074C26.1432 20.118 26.2178 20.859 25.7625 21.3165C24.8264 22.2574 23.7446 23.045 22.5565 23.6477C21.0202 24.427 19.3395 24.8804 17.6198 24.9794C15.9 25.0784 14.1784 24.8209 12.5629 24.223C11.3135 23.7606 10.1484 23.1024 9.11046 22.2751C8.60573 21.8728 8.5948 21.1282 9.04244 20.6632C9.49008 20.1982 10.2263 20.1903 10.7396 20.5817C11.5393 21.1914 12.4269 21.6804 13.3741 22.031C14.6876 22.5171 16.0873 22.7264 17.4854 22.646C18.8836 22.5655 20.2501 22.1969 21.499 21.5633C22.3998 21.1063 23.2254 20.5187 23.9499 19.8212C24.4148 19.3736 25.1471 19.2969 25.6451 19.7074Z" stroke="#4286F5" stroke-width="4"/>
</g>
<mask id="mask1_1_30" style="mask-type:luminance" maskUnits="userSpaceOnUse" x="4" y="6" width="4" height="10">
<path d="M5.94819 15.7854C5.38494 15.9543 4.78663 15.6352 4.66622 15.0596C4.40377 13.805 4.33541 12.5154 4.46545 11.236C4.5955 9.95658 4.92195 8.70708 5.43148 7.53098C5.66524 6.99138 6.31553 6.79918 6.83326 7.07808C7.351 7.35688 7.53911 8.00098 7.31483 8.54458C6.93247 9.47128 6.68577 10.4503 6.58402 11.4514C6.48226 12.4524 6.52692 13.461 6.715 14.4457C6.82532 15.0233 6.51144 15.6164 5.94819 15.7854Z" fill="white"/>
</mask>
<g mask="url(#mask1_1_30)">
<path d="M5.94819 15.7854C5.38494 15.9543 4.78663 15.6352 4.66622 15.0596C4.40377 13.805 4.33541 12.5154 4.46545 11.236C4.5955 9.95658 4.92195 8.70708 5.43148 7.53098C5.66524 6.99138 6.31553 6.79918 6.83326 7.07808C7.351 7.35688 7.53911 8.00098 7.31483 8.54458C6.93247 9.47128 6.68577 10.4503 6.58402 11.4514C6.48226 12.4524 6.52692 13.461 6.715 14.4457C6.82532 15.0233 6.51144 15.6164 5.94819 15.7854Z" stroke="#34A853" stroke-width="4"/>
</g>
<mask id="mask2_1_30" style="mask-type:luminance" maskUnits="userSpaceOnUse" x="10" y="0" width="15" height="5">
<path d="M10.9738 2.84289C10.6361 2.29276 10.8064 1.56762 11.3856 1.28278C13.4521 0.266626 15.7668 -0.162344 18.0744 0.0551763C20.3821 0.272696 22.5759 1.12663 24.4161 2.51102C24.9319 2.89908 24.9637 3.64326 24.5291 4.1206C24.0946 4.59794 23.3588 4.62635 22.8348 4.24948C21.3757 3.2002 19.6582 2.55234 17.8551 2.38239C16.052 2.21243 14.2436 2.52793 12.6142 3.2861C12.029 3.55841 11.3114 3.39301 10.9738 2.84289Z" fill="white"/>
</mask>
<g mask="url(#mask2_1_30)">
<path d="M10.9738 2.84289C10.6361 2.29276 10.8064 1.56762 11.3856 1.28278C13.4521 0.266626 15.7668 -0.162344 18.0744 0.0551763C20.3821 0.272696 22.5759 1.12663 24.4161 2.51102C24.9319 2.89908 24.9637 3.64326 24.5291 4.1206C24.0946 4.59794 23.3588 4.62635 22.8348 4.24948C21.3757 3.2002 19.6582 2.55234 17.8551 2.38239C16.052 2.21243 14.2436 2.52793 12.6142 3.2861C12.029 3.55841 11.3114 3.39301 10.9738 2.84289Z" stroke="#FABC05" stroke-width="4"/>
</g>
<path d="M41.0275 19.0201C40.5341 19.0201 40.2008 18.8934 40.0275 18.6401C39.8541 18.3868 39.7675 18.1068 39.7675 17.8001V4.32006C39.7675 4.0134 39.8541 3.74006 40.0275 3.50006C40.2008 3.24673 40.5341 3.12006 41.0275 3.12006H47.9875C48.4808 3.12006 48.7408 3.4534 48.7675 4.12006C48.7941 4.80006 48.5341 5.14008 47.9875 5.14008H42.1275V17.0001H48.3475C48.8408 17.0001 49.0941 17.3268 49.1075 17.9801C49.1341 18.6734 48.8808 19.0201 48.3475 19.0201H41.0275Z" fill="white"/>
<path d="M33.3822 9.86008C33.7289 9.86008 34.0889 9.93338 34.4622 10.0801C34.8355 10.2268 35.1955 10.4201 35.5422 10.6601H35.5222C35.8689 10.9001 36.1355 11.2268 36.3222 11.6401C36.5089 12.0534 36.6022 12.5268 36.6022 13.0601V15.8001C36.6022 16.8801 36.2422 17.6868 35.5222 18.2201C35.1755 18.4734 34.8155 18.6734 34.4422 18.8201C34.0822 18.9534 33.7289 19.0201 33.3822 19.0201H29.0222C28.6755 19.0201 28.3155 18.9534 27.9422 18.8201C27.5822 18.6734 27.2289 18.4734 26.8822 18.2201C26.1622 17.6868 25.8022 16.8801 25.8022 15.8001V14.4801C25.8022 13.8534 26.1955 13.5401 26.9822 13.5401C27.7822 13.5401 28.1822 13.8534 28.1822 14.4801V15.6401C28.1822 15.9868 28.2822 16.3001 28.4822 16.5801C28.6822 16.8601 29.0289 17.0001 29.5222 17.0001H32.8822C33.3755 17.0001 33.7222 16.8601 33.9222 16.5801C34.1222 16.3001 34.2222 15.9868 34.2222 15.6401V13.2201C34.2222 12.8868 34.1222 12.5801 33.9222 12.3001C33.7222 12.0068 33.3755 11.8601 32.8822 11.8601H29.0222C28.3289 11.8601 27.6155 11.6067 26.8822 11.1001C26.1622 10.5401 25.8022 9.73338 25.8022 8.68008V6.30008C25.8022 5.76678 25.8955 5.30008 26.0822 4.90006C26.2689 4.48673 26.5355 4.1534 26.8822 3.90006H26.8622C27.2089 3.6734 27.5689 3.48673 27.9422 3.34006C28.3155 3.1934 28.6755 3.12006 29.0222 3.12006H33.3822C33.7289 3.12006 34.0889 3.1934 34.4622 3.34006C34.8355 3.48673 35.1955 3.6734 35.5422 3.90006H35.5222C35.8689 4.1534 36.1355 4.48673 36.3222 4.90006C36.5089 5.30008 36.6022 5.76678 36.6022 6.30008V7.48008C36.6022 8.10678 36.2022 8.42008 35.4022 8.42008C34.6155 8.42008 34.2222 8.10678 34.2222 7.48008V6.48008C34.2222 6.14678 34.1222 5.84008 33.9222 5.56008C33.7222 5.28008 33.3755 5.14008 32.8822 5.14008H29.5222C29.0289 5.14008 28.6822 5.28008 28.4822 5.56008C28.2822 5.84008 28.1822 6.14678 28.1822 6.48008V8.52008C28.1822 8.86668 28.2822 9.18008 28.4822 9.46008C28.6822 9.72668 29.0289 9.86008 29.5222 9.86008H33.3822Z" fill="white"/>
<path d="M7.06138 17.0001C7.55472 17.0001 7.90139 16.8601 8.10139 16.5801C8.30139 16.3001 8.40139 15.9868 8.40139 15.6401V6.48008C8.40139 6.14678 8.30139 5.84008 8.10139 5.56008C7.90139 5.28008 7.55472 5.14008 7.06138 5.14008H2.38139L2.36139 18.1801C2.36139 18.4734 2.24805 18.7068 2.02139 18.8801C1.79472 19.0534 1.73471 19.0001 1.40138 19.0001C-0.0986345 19.0001 0.00138552 19.0001 0.00138452 18.1801C0.00138352 17.3601 0.00138452 4.32006 0.00138452 4.32006C0.00138452 3.84006 0.121385 3.52006 0.361385 3.36006C0.614719 3.20006 0.914719 3.12006 1.26139 3.12006H7.56138C7.90805 3.12006 8.26805 3.1934 8.64139 3.34006C9.01472 3.48673 9.37472 3.6734 9.72138 3.90006H9.70138C10.0481 4.1534 10.3147 4.48673 10.5014 4.90006C10.6881 5.30008 10.7814 5.76678 10.7814 6.30008V15.8001C10.7814 16.8801 10.4214 17.6868 9.70138 18.2201C9.35472 18.4734 8.99472 18.6734 8.62139 18.8201C8.26139 18.9534 7.90805 19.0201 7.56138 19.0201L1.32234 18.9295C1.09567 18.9295 0.915668 18.8362 0.782338 18.6495C0.662338 18.4628 0.602338 18.2162 0.602338 17.9095C0.602338 17.2428 0.889009 16.9095 1.46234 16.9095L7.06138 17.0001Z" fill="white"/>
<path d="M46.7475 11.9201C47.0808 11.6001 47.2475 11.2067 47.2475 10.7401C47.2475 10.2734 47.0808 9.88008 46.7475 9.56008C46.4275 9.24008 46.0342 9.08008 45.5675 9.08008C45.1142 9.08008 44.7275 9.24008 44.4075 9.56008C44.0875 9.88008 43.9275 10.2734 43.9275 10.7401C43.9275 11.2067 44.0875 11.6001 44.4075 11.9201C44.7275 12.2401 45.1142 12.4001 45.5675 12.4001C46.0342 12.4001 46.4275 12.2401 46.7475 11.9201Z" fill="#EA4235"/>
<mask id="mask3_1_30" style="mask-type:luminance" maskUnits="userSpaceOnUse" x="51" y="3" width="16" height="16">
<path d="M51.9384 8.59317C51.3673 8.38047 51.0703 7.74027 51.3595 7.20377C52.0737 5.87877 53.1515 4.77511 54.4761 4.02923C56.123 3.10191 58.0449 2.78757 59.9014 3.14194C61.7578 3.4963 63.4289 4.49648 64.6183 5.96517C65.8078 7.43397 66.4388 9.27637 66.3997 11.1659C66.3605 13.0555 65.6536 14.8702 64.4043 16.2883C63.155 17.7065 61.4439 18.6365 59.5743 18.9136C57.7048 19.1907 55.7975 18.797 54.1906 17.8022C52.898 17.0021 51.8669 15.8546 51.2081 14.5012C50.9415 13.9532 51.2648 13.3258 51.8442 13.137C52.4236 12.9482 53.0377 13.2723 53.3328 13.8054C53.8103 14.6682 54.5034 15.4004 55.3521 15.9258C56.5158 16.6462 57.897 16.9313 59.2508 16.7307C60.6046 16.53 61.8437 15.8565 62.7484 14.8295C63.653 13.8026 64.1649 12.4885 64.1933 11.1202C64.2217 9.75187 63.7647 8.41767 62.9034 7.35407C62.042 6.29047 60.8319 5.56627 59.4876 5.30967C58.1433 5.05297 56.7515 5.28067 55.5589 5.95217C54.6891 6.44197 53.9663 7.14477 53.4534 7.98697C53.1365 8.50747 52.5095 8.80587 51.9384 8.59317Z" fill="white"/>
</mask>
<g mask="url(#mask3_1_30)">
<path d="M51.9384 8.59317C51.3673 8.38047 51.0703 7.74027 51.3595 7.20377C52.0737 5.87877 53.1515 4.77511 54.4761 4.02923C56.123 3.10191 58.0449 2.78757 59.9014 3.14194C61.7578 3.4963 63.4289 4.49648 64.6183 5.96517C65.8078 7.43397 66.4388 9.27637 66.3997 11.1659C66.3605 13.0555 65.6536 14.8702 64.4043 16.2883C63.155 17.7065 61.4439 18.6365 59.5743 18.9136C57.7048 19.1907 55.7975 18.797 54.1906 17.8022C52.898 17.0021 51.8669 15.8546 51.2081 14.5012C50.9415 13.9532 51.2648 13.3258 51.8442 13.137C52.4236 12.9482 53.0377 13.2723 53.3328 13.8054C53.8103 14.6682 54.5034 15.4004 55.3521 15.9258C56.5158 16.6462 57.897 16.9313 59.2508 16.7307C60.6046 16.53 61.8437 15.8565 62.7484 14.8295C63.653 13.8026 64.1649 12.4885 64.1933 11.1202C64.2217 9.75187 63.7647 8.41767 62.9034 7.35407C62.042 6.29047 60.8319 5.56627 59.4876 5.30967C58.1433 5.05297 56.7515 5.28067 55.5589 5.95217C54.6891 6.44197 53.9663 7.14477 53.4534 7.98697C53.1365 8.50747 52.5095 8.80587 51.9384 8.59317Z" fill="white" stroke="white" stroke-width="4"/>
</g>
<path d="M109.975 2.36174C109.935 2.17474 109.818 2.05518 109.63 2.01839H109.615L109.599 2.01533C109.59 2.01533 109.578 2.01533 109.569 2.0092C109.538 2.00307 109.51 2 109.482 2C109.279 2 109.122 2.06744 108.996 2.21153L108.721 2.52422C108.324 3.00245 107.97 3.56652 107.624 4.1122C107.427 4.42489 107.242 4.71919 107.051 4.99816C106.58 5.68792 105.902 6.73942 105.184 7.85224C104.238 9.31453 103.098 11.0834 102.658 11.6444V11.6107C102.658 11.5739 102.661 11.5402 102.664 11.5034C102.667 11.4605 102.67 11.4175 102.67 11.3746C102.765 10.2986 102.929 9.23483 103.089 8.24157C103.144 7.92888 103.194 7.61312 103.243 7.30043C103.292 7 103.342 6.69651 103.391 6.39608C103.413 6.30104 103.419 6.20294 103.425 6.10791C103.428 6.07112 103.431 6.03127 103.434 5.99142C103.434 5.68179 103.286 5.53771 102.978 5.53771C102.781 5.53771 102.636 5.60822 102.534 5.75843C102.279 6.20907 102.008 6.7057 101.749 7.23912C101.838 6.77928 101.912 6.3409 101.961 5.89025C101.974 5.78909 101.986 5.67566 101.986 5.55917C101.986 5.44267 101.974 5.33538 101.961 5.22808V5.21888L101.955 5.20662C101.912 5.03495 101.801 4.94911 101.622 4.94911H101.555C101.351 4.97057 101.274 5.05334 101.271 5.25874C101.259 5.34457 101.259 5.41508 101.259 5.49479V5.6634C101.259 5.82281 101.231 6.00368 101.206 6.16309C101.077 6.97548 100.898 7.78479 100.707 8.61557C100.43 9.89086 100.113 11.3685 99.8384 12.8216C99.3762 13.2293 97.774 14.4372 97.278 14.6456C97.2379 14.6579 97.204 14.6671 97.1886 14.6671C96.9822 14.6671 96.8497 14.1674 96.8004 13.9804L96.7912 13.9497V13.9313C96.7788 13.9129 96.7696 13.8915 96.7634 13.8731C96.7819 13.8639 96.8035 13.8516 96.8189 13.8424C97.0469 13.6891 97.2626 13.5481 97.4783 13.404C98.1499 12.9626 98.7847 12.5426 99.4286 12.0705L99.4379 12.0644L99.444 12.0552L99.4563 12.049C99.4933 12.0215 99.5858 11.954 99.5858 11.8375V11.7456L99.558 11.7057C99.5211 11.6505 99.444 11.5861 99.3085 11.5861C99.216 11.5861 99.0804 11.6168 98.988 11.6873C98.4889 12.049 97.9558 12.3924 97.4413 12.7235C97.1732 12.8952 96.9052 13.0668 96.6371 13.2446C96.5816 13.0055 96.5324 12.6744 96.5324 12.4905C96.5324 12.4537 96.5324 12.4292 96.5385 12.4047L96.5447 12.3863V12.3372C96.5447 12.1717 96.3906 12.046 96.1965 12.046C96.0363 12.046 95.8761 12.1563 95.8761 12.4077V12.4231C95.8822 12.5917 95.8946 12.7633 95.913 12.9289C95.3461 13.4807 93.4543 14.195 92.5546 14.195C92.3574 14.195 92.1232 14.1643 92.1232 14.0172C92.1232 13.8823 92.2372 13.6738 92.4714 13.3795C92.4961 13.3795 92.5207 13.3826 92.5515 13.3857C92.6101 13.3948 92.6933 13.4071 92.7918 13.4071C92.8473 13.4071 92.8997 13.3979 92.9582 13.3887L93.0229 13.3765H93.0414C93.6422 13.214 94.1968 12.6744 94.0428 12.0766V12.0644L94.0335 12.0521C93.9442 11.8559 93.71 11.7394 93.4081 11.7394C93.3465 11.7394 93.2725 11.7394 93.1986 11.7578C92.8689 11.8345 92.5084 12.233 92.2711 12.4997C92.2064 12.5702 92.1263 12.6591 92.1017 12.6744C92.0863 12.6867 92.0739 12.6928 92.0585 12.699C91.9908 12.7357 91.8429 12.8093 91.8429 12.9902V13.0147C91.6333 13.2078 91.3838 13.4623 91.1219 13.7321C90.3855 14.4862 89.4673 15.4243 88.8264 15.6327L88.8018 15.6389C88.7771 15.645 88.7371 15.6542 88.7217 15.6542C88.7093 15.6542 88.6909 15.6327 88.6755 15.5438C88.6662 15.4979 88.6662 15.4365 88.6662 15.363C88.6662 14.9368 89.0791 13.0178 89.3441 12.6836C90.2006 11.6475 91.7165 9.56898 92.2342 7.30656C92.2804 7.13795 92.305 6.98161 92.305 6.82833V6.75782C92.2865 6.49111 92.1417 6.34396 91.8829 6.32863H91.8459C91.4978 6.32863 91.316 6.57082 91.1558 6.78234L91.1219 6.83139C90.2622 8.08522 89.1253 11.0742 88.6446 12.4813C88.6323 12.5181 88.6169 12.561 88.6015 12.5947C88.1147 12.5058 87.6279 12.4629 87.1164 12.4629H87.0917L87.101 12.4231C87.1226 12.3158 87.1503 12.2146 87.178 12.1134C87.2057 12.0184 87.2304 11.9234 87.252 11.8253C87.8836 9.56284 88.6046 6.98774 88.8326 4.45248L88.8388 4.37278C88.848 4.24709 88.8603 4.1122 88.8603 3.98345C88.8603 3.729 88.8603 2.9626 88.2133 2.92581H88.2102C88.05 2.92581 87.9082 2.95953 87.7727 3.02698C87.6464 3.08522 87.5046 3.17719 87.3629 3.29062L87.3536 3.27529V3.26609C87.366 3.22931 87.4029 3.168 87.4338 3.12201C87.4861 3.03617 87.5354 2.95953 87.5478 2.87676V2.83078C87.5478 2.6591 87.3845 2.62232 87.3321 2.61006H87.3167H87.2828C87.0178 2.61006 86.9315 2.80319 86.8822 2.90742C86.873 2.92888 86.8607 2.95647 86.8514 2.9718C86.2999 3.01778 85.6898 3.85776 85.4526 4.2195C84.4266 5.62661 83.4714 7.19926 82.5409 9.0233C82.3899 9.32986 82.242 9.63642 82.0972 9.94298C81.6905 10.7983 81.2684 11.6781 80.7384 12.4905C80.5967 12.7174 80.495 12.9044 80.4211 13.0791C80.3502 13.2048 80.2855 13.2477 80.1438 13.2692C79.7956 13.3427 79.4659 13.4163 79.1455 13.4929C79.4474 13.0454 79.8203 12.5518 80.304 12.1318C80.3441 12.1012 80.3903 12.0644 80.4334 12.0123C80.4858 11.9632 80.5074 11.9019 80.495 11.8345C80.4796 11.7456 80.3934 11.6781 80.2824 11.6781C80.267 11.6781 80.2485 11.6781 80.2301 11.6812C80.0267 11.721 79.5984 12.1717 79.2965 12.512C79.3489 12.2667 79.3951 12.0153 79.4259 11.7731V11.7302C79.4351 11.6658 79.4444 11.5953 79.4259 11.5218C79.3982 11.3807 79.2934 11.301 79.1393 11.301H79.1116L79.0592 11.3102C78.973 11.3286 78.8651 11.3624 78.7758 11.4758C78.6895 11.6015 78.594 11.7701 78.4861 11.9693C78.2366 12.4139 77.8607 13.0914 77.5618 13.1496H77.5433C77.5433 13.1496 77.5341 13.1312 77.531 13.1097C77.5002 12.9534 77.5526 12.6898 77.5741 12.5886V12.5641C77.6018 12.4752 77.6327 12.3679 77.6142 12.2728C77.5895 12.1533 77.494 12.0828 77.3646 12.0828C77.3554 12.0828 77.343 12.0858 77.3307 12.0858L77.2814 12.092C77.0781 12.1288 76.961 12.2054 76.9363 12.3158C76.9209 12.325 76.9055 12.3372 76.8901 12.3495C76.7823 12.4537 76.5512 12.6622 76.3478 12.843C76.3571 12.7879 76.3663 12.7296 76.3663 12.6714C76.3694 12.5457 76.3201 12.466 76.277 12.42C76.2123 12.3556 76.1198 12.3188 76.0058 12.3188C75.9688 12.3188 75.9257 12.325 75.8826 12.3342C75.7439 12.3587 75.6176 12.4292 75.5036 12.5212C75.7994 11.5187 76.1445 9.86327 76.0089 9.16432C75.9596 8.98958 75.861 8.90681 75.7162 8.90681C75.7008 8.90681 75.6885 8.90681 75.6731 8.90987H75.6546L75.6022 8.9252C75.4666 8.94972 75.3526 9.0325 75.2725 9.16432C74.7641 10.0779 74.5454 13.4776 74.5145 14.3391V14.382C74.5145 14.4678 74.5145 14.5138 74.4776 14.5628C74.4314 14.6088 74.4129 14.6763 74.4252 14.7407C74.4375 14.805 74.4899 14.9123 74.7056 14.9123C74.7549 14.9123 74.798 14.9062 74.8227 14.9031C74.9397 14.8817 75.0199 14.8142 75.0753 14.7008C75.0784 14.6977 75.0846 14.6947 75.0876 14.6916C75.1 14.6793 75.1123 14.6671 75.1215 14.6579C75.3033 14.4923 75.4789 14.3023 75.6669 14.0632C75.7162 13.9988 75.7747 13.9405 75.8425 13.8853C76.2307 13.5359 76.5851 13.217 76.9486 12.8982C76.9332 13.0055 76.9271 13.1159 76.9486 13.214C76.9918 13.4531 77.1674 13.5849 77.4385 13.5849C77.4786 13.5849 77.5217 13.5819 77.571 13.5757H77.5864L77.6388 13.5604C77.9839 13.4991 78.2088 13.26 78.3629 13.0607C78.4676 12.9258 78.5878 12.7388 78.708 12.5426C78.6494 12.8522 78.5816 13.1557 78.5169 13.447C78.4954 13.5328 78.4707 13.588 78.4276 13.6493C78.4214 13.6585 78.4153 13.6677 78.4091 13.6769C76.7946 14.0969 75.442 14.5935 74.3913 15.1453C74.1695 15.2526 74.0277 15.3446 74.0031 15.4764V15.4887L74 15.504C74 15.5592 74.0216 15.6419 74.1232 15.7124C74.1879 15.7492 74.2557 15.7676 74.3204 15.7676H74.3482C74.6255 15.7676 74.9983 15.6052 75.1801 15.4979C75.214 15.4795 75.254 15.4549 75.2941 15.4304C75.3311 15.4059 75.3711 15.3783 75.3958 15.3691C76.2153 15.0227 77.0719 14.7161 77.9562 14.4525C77.722 14.9031 77.4447 15.5316 77.3646 16.0956V16.114C77.3584 16.1845 77.3492 16.2735 77.3646 16.3593C77.3985 16.5279 77.5187 16.6291 77.6789 16.6291H77.6974L77.7128 16.6229L77.7651 16.6107C77.9993 16.5708 78.1133 16.3654 78.1934 16.2121C78.4584 15.7492 78.6957 14.9399 78.8928 14.1919C79.204 14.1091 79.5337 14.0294 79.9189 13.9436C79.0962 15.4641 78.3167 17.0399 77.7189 18.3948C77.682 18.45 77.682 18.5083 77.682 18.5297V18.5727C77.682 18.7106 77.8052 18.821 77.9623 18.821H77.9901C78.1349 18.821 78.2674 18.7443 78.3567 18.6125C78.4091 18.5328 78.4553 18.45 78.5046 18.3642C78.5354 18.3121 78.5662 18.26 78.5971 18.2048L78.8281 17.7572C79.204 17.0307 79.5861 16.2857 79.9774 15.5438L79.8665 15.9638L79.8603 15.9822V16.0313C79.8603 16.16 79.9712 16.2673 80.1099 16.2673H80.1931C80.4026 16.2673 80.4858 16.1079 80.5351 15.973V15.9638L80.5413 15.9546C80.6953 15.2649 80.911 14.5475 81.1914 13.7658C81.2129 13.6922 81.2222 13.6738 81.3393 13.6401C83.305 13.2753 84.821 13.0852 86.229 13.0208L85.166 16.9632C84.9843 17.6438 84.8025 18.3243 84.6207 18.9896C84.556 19.2502 84.4913 19.5077 84.4296 19.7652C84.2818 20.3752 84.1308 21.0067 83.9521 21.6229L83.9397 21.6567L83.9305 21.6812V21.7364C83.9305 21.9142 84.1 21.9693 84.1616 21.9908L84.1862 22H84.2109C84.4112 22 84.5221 21.9111 84.5837 21.7088L85.7823 17.1931L86.9408 13.0055V12.9963H86.9439H86.9593C87.4153 12.9963 87.7973 13.0178 88.1732 13.0668C88.1732 13.217 88.2841 13.2722 88.3766 13.2968C88.1856 13.9129 87.9206 14.8142 87.9206 15.3844V15.4243C87.936 15.927 88.201 16.2029 88.66 16.2029C88.9435 16.2029 89.2732 16.1018 89.5659 15.9301C90.0743 15.6573 90.7645 14.9338 91.3776 14.2961C91.4238 14.2471 91.47 14.2011 91.5163 14.1521C91.544 14.2839 91.5933 14.3574 91.5995 14.3697C91.7782 14.6334 92.1232 14.7713 92.5947 14.7713C92.9736 14.7713 93.3588 14.6824 93.4759 14.6426C93.9997 14.523 95.2752 14.054 96.0086 13.591V13.6432C96.0086 13.6432 95.9439 13.6891 95.8884 13.7229L94.8408 14.3942C94.8408 14.3942 94.8254 14.4004 94.8192 14.4034C94.7761 14.4249 94.659 14.4801 94.659 14.618C94.659 14.6395 94.659 14.7008 94.7022 14.7529C94.7576 14.8296 94.8316 14.8694 94.924 14.8694C94.9456 14.8694 94.9733 14.8633 95.001 14.8602C95.0072 14.8602 95.0164 14.8602 95.0257 14.8602H95.0411L95.0657 14.8541C95.1921 14.8173 95.9901 14.3574 96.1287 14.2716C96.1349 14.2685 96.1441 14.2624 96.1534 14.2594C96.2828 14.6916 96.4676 15.2434 97.0407 15.2618C97.6169 15.2618 98.9788 14.2471 99.6782 13.6861C99.5457 14.4126 99.4348 15.0809 99.3362 15.7216C99.3177 15.8872 99.3054 16.0313 99.293 16.1754V16.1907C99.293 16.3194 99.3393 16.4114 99.4317 16.4635C99.5087 16.5156 99.5919 16.5156 99.6443 16.5156C99.8384 16.5156 99.9894 16.3838 100.033 16.1815V16.1662L100.036 16.1508C100.036 16.1324 100.036 16.1079 100.039 16.1018L100.048 16.0803V16.0619C100.418 12.9044 101.28 9.7805 102.436 7.3832C102.26 8.39792 102.106 9.34519 101.992 10.3047C101.943 10.6941 101.887 11.0956 101.887 11.5156V11.6321C101.887 11.7578 101.887 11.8896 101.931 12.0307V12.0399L101.937 12.046C102.02 12.2391 102.165 12.3433 102.371 12.3617H102.476C102.695 12.3617 102.886 12.279 103.024 12.1257C103.098 12.0521 103.197 11.954 103.271 11.8498C103.508 11.5739 103.711 11.2551 103.896 10.9516C105.187 8.85776 106.521 6.80687 107.852 4.85714L108.013 4.62416C108.37 4.10607 108.737 3.57572 109.128 3.08829C109.079 3.44697 109.023 3.75659 108.959 4.04169C108.746 5.14224 108.466 6.17842 108.173 7.2759L108.133 7.42918C107.55 9.67321 106.947 11.9908 106.469 14.3268C106.29 15.2526 106.173 16.1723 106.047 17.1931V17.2115C106.047 17.2636 106.047 17.3525 106.118 17.4231L106.124 17.4292L106.133 17.4353C106.207 17.4936 106.293 17.5242 106.383 17.5242C106.414 17.5242 106.444 17.515 106.466 17.512L106.484 17.5058C106.577 17.4936 106.709 17.4445 106.746 17.2544C106.768 17.1625 106.786 17.0582 106.802 16.9264C106.903 16.1815 107.03 15.4335 107.193 14.6487C107.587 12.8093 108.077 10.9516 108.506 9.35438C108.61 8.96812 108.715 8.58492 108.823 8.19865C109.14 7.03985 109.473 5.8412 109.72 4.64255C109.855 4.0233 109.948 3.42551 110 2.81852C110 2.6683 110 2.51502 109.972 2.37094L109.975 2.36174ZM93.4635 12.1165C93.4759 12.1563 93.4759 12.2115 93.4759 12.2544C93.4759 12.6438 93.0445 13.03 92.6255 13.03H92.5546C92.8073 12.6836 93.0876 12.3525 93.4635 12.1165ZM89.4303 11.7548C89.683 11.1171 91.356 7.07664 91.7751 6.93869C91.6364 8.09136 90.897 9.59044 90.3115 10.5622C90.1975 10.7124 89.5289 11.7946 89.4303 11.8375V11.7548ZM75.0199 12.7235C75.026 12.7051 75.0199 12.6806 75.026 12.6683C75.063 12.3372 75.4481 9.35132 75.6638 9.29307C75.6761 9.3176 75.6731 9.35438 75.6823 9.38811C75.7224 10.0196 75.2756 12.3158 75.0353 12.7664L75.0199 12.7235ZM75.0476 13.2722C75.0476 13.2722 75.0599 13.2692 75.063 13.2661C75.0568 13.2784 75.0537 13.2906 75.0476 13.3029V13.2722ZM75.5529 13.7045C75.4974 13.7872 75.1708 14.0662 75.0753 14.1459C75.063 14.1306 75.0537 14.1245 75.0599 14.1153C75.0599 14.1061 75.0568 14.0969 75.0661 14.0877C75.1585 13.7351 75.519 12.6836 75.9288 12.6039C75.935 12.6009 75.938 12.6009 75.9442 12.6009C75.9812 12.6009 76.0058 12.6254 76.0027 12.699C76.049 12.9411 75.6946 13.5052 75.5529 13.7045ZM77.2136 12.4506L77.1643 12.4997C77.1643 12.4813 77.1643 12.466 77.1612 12.4506C77.1458 12.4169 77.115 12.42 77.0996 12.3955C77.115 12.3893 77.1304 12.3832 77.1458 12.3801C77.1551 12.3801 77.1612 12.3801 77.1705 12.3801C77.2075 12.3801 77.229 12.3985 77.2321 12.4139C77.2383 12.4292 77.2321 12.4414 77.2136 12.4537V12.4506ZM77.7651 16.2489L77.759 16.2213C77.6943 15.8841 78.255 14.6947 78.4338 14.3636C78.3413 14.9675 77.9901 15.9516 77.7651 16.2489ZM78.7573 13.8332C78.7388 13.8884 78.7234 13.9436 78.7049 14.0018C78.6125 14.0264 78.5169 14.054 78.4245 14.0785C78.4245 14.0785 78.4245 14.0764 78.4245 14.0723C78.4615 14.0018 78.4954 13.9344 78.5385 13.867C78.5385 13.867 78.7234 13.8179 78.7604 13.8087C78.7604 13.8179 78.7573 13.824 78.7542 13.8332H78.7573ZM86.531 3.64929C85.7638 4.82955 84.9534 5.98222 84.1862 7.14715C84.8702 5.92397 85.5943 4.73145 86.531 3.64929ZM86.4694 12.1441L86.3954 12.4231C86.3892 12.4414 86.3862 12.4568 86.3831 12.469C86.3646 12.4721 86.343 12.4721 86.3215 12.4752C84.6207 12.5334 82.9754 12.7695 81.595 12.9902C81.5611 12.9963 81.5241 13.0025 81.4841 13.0086C81.6813 12.512 81.8661 12.0399 82.1188 11.5739C83.3112 9.37584 84.7193 7.26364 86.4262 5.11772C87.1534 4.24402 87.8928 3.52054 88.127 3.44697C88.1332 3.45616 88.1363 3.46842 88.1455 3.48375C88.1732 3.56959 88.1886 3.71367 88.1886 3.94053C88.1886 4.39117 88.1085 5.05947 87.9267 6.10484C87.5293 8.22318 86.8144 10.8688 86.4694 12.1441Z" fill="#C0C0C0"/>
</svg>
