<svg width="109" height="25" viewBox="0 0 109 25" fill="none" xmlns="http://www.w3.org/2000/svg">
<mask id="mask0_1_28" style="mask-type:luminance" maskUnits="userSpaceOnUse" x="8" y="19" width="19" height="6">
<path d="M25.6451 19.7074C26.1432 20.118 26.2178 20.859 25.7625 21.3165C24.8264 22.2574 23.7446 23.045 22.5565 23.6477C21.0202 24.427 19.3395 24.8804 17.6198 24.9794C15.9 25.0784 14.1784 24.8209 12.5629 24.223C11.3135 23.7606 10.1484 23.1024 9.11046 22.2751C8.60573 21.8728 8.5948 21.1282 9.04244 20.6632C9.49008 20.1982 10.2263 20.1903 10.7396 20.5817C11.5393 21.1914 12.4269 21.6804 13.3741 22.031C14.6876 22.5171 16.0873 22.7264 17.4854 22.646C18.8836 22.5655 20.2501 22.1969 21.499 21.5633C22.3998 21.1063 23.2254 20.5187 23.9499 19.8212C24.4148 19.3736 25.1471 19.2969 25.6451 19.7074Z" fill="white"/>
</mask>
<g mask="url(#mask0_1_28)">
<path d="M25.6451 19.7074C26.1432 20.118 26.2178 20.859 25.7625 21.3165C24.8264 22.2574 23.7446 23.045 22.5565 23.6477C21.0202 24.427 19.3395 24.8804 17.6198 24.9794C15.9 25.0784 14.1784 24.8209 12.5629 24.223C11.3135 23.7606 10.1484 23.1024 9.11046 22.2751C8.60573 21.8728 8.5948 21.1282 9.04244 20.6632C9.49008 20.1982 10.2263 20.1903 10.7396 20.5817C11.5393 21.1914 12.4269 21.6804 13.3741 22.031C14.6876 22.5171 16.0873 22.7264 17.4854 22.646C18.8836 22.5655 20.2501 22.1969 21.499 21.5633C22.3998 21.1063 23.2254 20.5187 23.9499 19.8212C24.4148 19.3736 25.1471 19.2969 25.6451 19.7074Z" stroke="#4286F5" stroke-width="4"/>
</g>
<mask id="mask1_1_28" style="mask-type:luminance" maskUnits="userSpaceOnUse" x="4" y="6" width="4" height="10">
<path d="M5.94819 15.7854C5.38494 15.9543 4.78663 15.6352 4.66622 15.0596C4.40377 13.805 4.33541 12.5154 4.46545 11.236C4.5955 9.95658 4.92195 8.70708 5.43148 7.53098C5.66524 6.99138 6.31553 6.79918 6.83326 7.07808C7.351 7.35688 7.53911 8.00098 7.31483 8.54458C6.93247 9.47128 6.68577 10.4503 6.58402 11.4514C6.48226 12.4524 6.52692 13.461 6.715 14.4457C6.82532 15.0233 6.51144 15.6164 5.94819 15.7854Z" fill="white"/>
</mask>
<g mask="url(#mask1_1_28)">
<path d="M5.94819 15.7854C5.38494 15.9543 4.78663 15.6352 4.66622 15.0596C4.40377 13.805 4.33541 12.5154 4.46545 11.236C4.5955 9.95658 4.92195 8.70708 5.43148 7.53098C5.66524 6.99138 6.31553 6.79918 6.83326 7.07808C7.351 7.35688 7.53911 8.00098 7.31483 8.54458C6.93247 9.47128 6.68577 10.4503 6.58402 11.4514C6.48226 12.4524 6.52692 13.461 6.715 14.4457C6.82532 15.0233 6.51144 15.6164 5.94819 15.7854Z" stroke="#34A853" stroke-width="4"/>
</g>
<mask id="mask2_1_28" style="mask-type:luminance" maskUnits="userSpaceOnUse" x="10" y="0" width="15" height="5">
<path d="M10.9738 2.84289C10.6361 2.29276 10.8064 1.56762 11.3856 1.28278C13.4521 0.266626 15.7668 -0.162344 18.0744 0.0551763C20.3821 0.272696 22.5759 1.12663 24.4161 2.51102C24.9319 2.89908 24.9637 3.64326 24.5291 4.1206C24.0946 4.59794 23.3588 4.62635 22.8348 4.24948C21.3757 3.2002 19.6582 2.55234 17.8551 2.38239C16.052 2.21243 14.2436 2.52793 12.6142 3.2861C12.029 3.55841 11.3114 3.39301 10.9738 2.84289Z" fill="white"/>
</mask>
<g mask="url(#mask2_1_28)">
<path d="M10.9738 2.84289C10.6361 2.29276 10.8064 1.56762 11.3856 1.28278C13.4521 0.266626 15.7668 -0.162344 18.0744 0.0551763C20.3821 0.272696 22.5759 1.12663 24.4161 2.51102C24.9319 2.89908 24.9637 3.64326 24.5291 4.1206C24.0946 4.59794 23.3588 4.62635 22.8348 4.24948C21.3757 3.2002 19.6582 2.55234 17.8551 2.38239C16.052 2.21243 14.2436 2.52793 12.6142 3.2861C12.029 3.55841 11.3114 3.39301 10.9738 2.84289Z" stroke="#FABC05" stroke-width="4"/>
</g>
<path d="M41.0275 19.0201C40.5341 19.0201 40.2008 18.8934 40.0275 18.6401C39.8541 18.3868 39.7675 18.1068 39.7675 17.8001V4.32006C39.7675 4.0134 39.8541 3.74006 40.0275 3.50006C40.2008 3.24673 40.5341 3.12006 41.0275 3.12006H47.9875C48.4808 3.12006 48.7408 3.4534 48.7675 4.12006C48.7941 4.80006 48.5341 5.14008 47.9875 5.14008H42.1275V17.0001H48.3475C48.8408 17.0001 49.0941 17.3268 49.1075 17.9801C49.1341 18.6734 48.8808 19.0201 48.3475 19.0201H41.0275Z" fill="#2A2424"/>
<path d="M33.3822 9.86008C33.7289 9.86008 34.0889 9.93338 34.4622 10.0801C34.8355 10.2268 35.1955 10.4201 35.5422 10.6601H35.5222C35.8689 10.9001 36.1355 11.2268 36.3222 11.6401C36.5089 12.0534 36.6022 12.5268 36.6022 13.0601V15.8001C36.6022 16.8801 36.2422 17.6868 35.5222 18.2201C35.1755 18.4734 34.8155 18.6734 34.4422 18.8201C34.0822 18.9534 33.7289 19.0201 33.3822 19.0201H29.0222C28.6755 19.0201 28.3155 18.9534 27.9422 18.8201C27.5822 18.6734 27.2289 18.4734 26.8822 18.2201C26.1622 17.6868 25.8022 16.8801 25.8022 15.8001V14.4801C25.8022 13.8534 26.1955 13.5401 26.9822 13.5401C27.7822 13.5401 28.1822 13.8534 28.1822 14.4801V15.6401C28.1822 15.9868 28.2822 16.3001 28.4822 16.5801C28.6822 16.8601 29.0289 17.0001 29.5222 17.0001H32.8822C33.3755 17.0001 33.7222 16.8601 33.9222 16.5801C34.1222 16.3001 34.2222 15.9868 34.2222 15.6401V13.2201C34.2222 12.8868 34.1222 12.5801 33.9222 12.3001C33.7222 12.0068 33.3755 11.8601 32.8822 11.8601H29.0222C28.3289 11.8601 27.6155 11.6067 26.8822 11.1001C26.1622 10.5401 25.8022 9.73338 25.8022 8.68008V6.30008C25.8022 5.76678 25.8955 5.30008 26.0822 4.90006C26.2689 4.48673 26.5355 4.1534 26.8822 3.90006H26.8622C27.2089 3.6734 27.5689 3.48673 27.9422 3.34006C28.3155 3.1934 28.6755 3.12006 29.0222 3.12006H33.3822C33.7289 3.12006 34.0889 3.1934 34.4622 3.34006C34.8355 3.48673 35.1955 3.6734 35.5422 3.90006H35.5222C35.8689 4.1534 36.1355 4.48673 36.3222 4.90006C36.5089 5.30008 36.6022 5.76678 36.6022 6.30008V7.48008C36.6022 8.10678 36.2022 8.42008 35.4022 8.42008C34.6155 8.42008 34.2222 8.10678 34.2222 7.48008V6.48008C34.2222 6.14678 34.1222 5.84008 33.9222 5.56008C33.7222 5.28008 33.3755 5.14008 32.8822 5.14008H29.5222C29.0289 5.14008 28.6822 5.28008 28.4822 5.56008C28.2822 5.84008 28.1822 6.14678 28.1822 6.48008V8.52008C28.1822 8.86668 28.2822 9.18008 28.4822 9.46008C28.6822 9.72668 29.0289 9.86008 29.5222 9.86008H33.3822Z" fill="#2A2424"/>
<path d="M7.06138 17.0001C7.55472 17.0001 7.90139 16.8601 8.10139 16.5801C8.30139 16.3001 8.40139 15.9868 8.40139 15.6401V6.48008C8.40139 6.14678 8.30139 5.84008 8.10139 5.56008C7.90139 5.28008 7.55472 5.14008 7.06138 5.14008H2.38139L2.36139 18.1801C2.36139 18.4734 2.24805 18.7068 2.02139 18.8801C1.79472 19.0534 1.73471 19.0001 1.40138 19.0001C-0.0986345 19.0001 0.00138552 19.0001 0.00138452 18.1801C0.00138352 17.3601 0.00138452 4.32006 0.00138452 4.32006C0.00138452 3.84006 0.121385 3.52006 0.361385 3.36006C0.614719 3.20006 0.914719 3.12006 1.26139 3.12006H7.56138C7.90805 3.12006 8.26805 3.1934 8.64139 3.34006C9.01472 3.48673 9.37472 3.6734 9.72138 3.90006H9.70138C10.0481 4.1534 10.3147 4.48673 10.5014 4.90006C10.6881 5.30008 10.7814 5.76678 10.7814 6.30008V15.8001C10.7814 16.8801 10.4214 17.6868 9.70138 18.2201C9.35472 18.4734 8.99472 18.6734 8.62139 18.8201C8.26139 18.9534 7.90805 19.0201 7.56138 19.0201L1.32234 18.9295C1.09567 18.9295 0.915668 18.8362 0.782338 18.6495C0.662338 18.4628 0.602338 18.2162 0.602338 17.9095C0.602338 17.2428 0.889009 16.9095 1.46234 16.9095L7.06138 17.0001Z" fill="#2A2424"/>
<path d="M46.7475 11.9201C47.0808 11.6001 47.2475 11.2067 47.2475 10.7401C47.2475 10.2734 47.0808 9.88008 46.7475 9.56008C46.4275 9.24008 46.0342 9.08008 45.5675 9.08008C45.1142 9.08008 44.7275 9.24008 44.4075 9.56008C44.0875 9.88008 43.9275 10.2734 43.9275 10.7401C43.9275 11.2067 44.0875 11.6001 44.4075 11.9201C44.7275 12.2401 45.1142 12.4001 45.5675 12.4001C46.0342 12.4001 46.4275 12.2401 46.7475 11.9201Z" fill="#EA4235"/>
<mask id="mask3_1_28" style="mask-type:luminance" maskUnits="userSpaceOnUse" x="51" y="3" width="16" height="16">
<path d="M51.9384 8.59318C51.3673 8.38048 51.0703 7.74028 51.3595 7.20378C52.0737 5.87878 53.1515 4.77512 54.4761 4.02924C56.123 3.10192 58.0449 2.78758 59.9014 3.14195C61.7578 3.49631 63.4289 4.49649 64.6183 5.96518C65.8078 7.43398 66.4388 9.27638 66.3997 11.1659C66.3605 13.0555 65.6536 14.8702 64.4043 16.2883C63.155 17.7065 61.4439 18.6365 59.5743 18.9136C57.7048 19.1907 55.7975 18.797 54.1906 17.8022C52.898 17.0021 51.8669 15.8546 51.2081 14.5012C50.9415 13.9532 51.2648 13.3258 51.8442 13.137C52.4236 12.9482 53.0377 13.2723 53.3328 13.8054C53.8103 14.6682 54.5034 15.4004 55.3521 15.9258C56.5158 16.6462 57.897 16.9313 59.2508 16.7307C60.6046 16.53 61.8437 15.8565 62.7484 14.8295C63.653 13.8026 64.1649 12.4885 64.1933 11.1202C64.2217 9.75188 63.7647 8.41768 62.9034 7.35408C62.042 6.29048 60.8319 5.56628 59.4876 5.30968C58.1433 5.05298 56.7515 5.28068 55.5589 5.95218C54.6891 6.44198 53.9663 7.14478 53.4534 7.98698C53.1365 8.50748 52.5095 8.80588 51.9384 8.59318Z" fill="white"/>
</mask>
<g mask="url(#mask3_1_28)">
<path d="M51.9384 8.59318C51.3673 8.38048 51.0703 7.74028 51.3595 7.20378C52.0737 5.87878 53.1515 4.77512 54.4761 4.02924C56.123 3.10192 58.0449 2.78758 59.9014 3.14195C61.7578 3.49631 63.4289 4.49649 64.6183 5.96518C65.8078 7.43398 66.4388 9.27638 66.3997 11.1659C66.3605 13.0555 65.6536 14.8702 64.4043 16.2883C63.155 17.7065 61.4439 18.6365 59.5743 18.9136C57.7048 19.1907 55.7975 18.797 54.1906 17.8022C52.898 17.0021 51.8669 15.8546 51.2081 14.5012C50.9415 13.9532 51.2648 13.3258 51.8442 13.137C52.4236 12.9482 53.0377 13.2723 53.3328 13.8054C53.8103 14.6682 54.5034 15.4004 55.3521 15.9258C56.5158 16.6462 57.897 16.9313 59.2508 16.7307C60.6046 16.53 61.8437 15.8565 62.7484 14.8295C63.653 13.8026 64.1649 12.4885 64.1933 11.1202C64.2217 9.75188 63.7647 8.41768 62.9034 7.35408C62.042 6.29048 60.8319 5.56628 59.4876 5.30968C58.1433 5.05298 56.7515 5.28068 55.5589 5.95218C54.6891 6.44198 53.9663 7.14478 53.4534 7.98698C53.1365 8.50748 52.5095 8.80588 51.9384 8.59318Z" fill="#2A2424" stroke="#2A2424" stroke-width="4"/>
</g>
<path d="M108.974 2.37983C108.932 2.18348 108.808 2.05794 108.61 2.01931H108.593L108.577 2.01609C108.567 2.01609 108.554 2.01609 108.545 2.00966C108.512 2.00322 108.483 2 108.454 2C108.239 2 108.073 2.07082 107.94 2.2221L107.65 2.55043C107.231 3.05258 106.857 3.64485 106.492 4.21781C106.284 4.54614 106.089 4.85515 105.888 5.14807C105.39 5.87232 104.674 6.97639 103.917 8.14485C102.918 9.68026 101.715 11.5376 101.25 12.1266V12.0912C101.25 12.0526 101.253 12.0172 101.256 11.9785C101.259 11.9335 101.263 11.8884 101.263 11.8433C101.364 10.7135 101.536 9.59657 101.705 8.55365C101.764 8.22532 101.816 7.89378 101.868 7.56545C101.92 7.25 101.972 6.93133 102.024 6.61588C102.047 6.51609 102.053 6.41309 102.06 6.3133C102.063 6.27468 102.066 6.23283 102.069 6.19099C102.069 5.86588 101.913 5.71459 101.588 5.71459C101.38 5.71459 101.227 5.78863 101.12 5.94635C100.85 6.41953 100.564 6.94099 100.29 7.50107C100.385 7.01824 100.463 6.55794 100.515 6.08476C100.528 5.97854 100.541 5.85944 100.541 5.73712C100.541 5.61481 100.528 5.50215 100.515 5.38948V5.37983L100.508 5.36695C100.463 5.1867 100.346 5.09657 100.157 5.09657H100.085C99.8708 5.1191 99.7895 5.20601 99.7862 5.42167C99.7732 5.5118 99.7732 5.58584 99.7732 5.66953V5.84657C99.7732 6.01395 99.7439 6.20386 99.7179 6.37124C99.5813 7.22425 99.3927 8.07403 99.191 8.94635C98.8983 10.2854 98.5633 11.8369 98.2739 13.3627C97.786 13.7908 96.0948 15.059 95.5712 15.2779C95.5289 15.2908 95.4932 15.3004 95.4769 15.3004C95.259 15.3004 95.1191 14.7758 95.0671 14.5794L95.0573 14.5472V14.5279C95.0443 14.5086 95.0346 14.4861 95.0281 14.4667C95.0476 14.4571 95.0704 14.4442 95.0866 14.4345C95.3273 14.2736 95.5549 14.1255 95.7826 13.9742C96.4916 13.5107 97.1616 13.0697 97.8413 12.574L97.8511 12.5676L97.8576 12.5579L97.8706 12.5515C97.9096 12.5225 98.0072 12.4517 98.0072 12.3294V12.2328L97.9779 12.191C97.9389 12.133 97.8576 12.0655 97.7145 12.0655C97.6169 12.0655 97.4738 12.0976 97.3762 12.1717C96.8494 12.5515 96.2867 12.912 95.7436 13.2597C95.4606 13.4399 95.1777 13.6202 94.8947 13.8069C94.8362 13.5558 94.7842 13.2082 94.7842 13.015C94.7842 12.9764 94.7841 12.9506 94.7907 12.9249L94.7972 12.9056V12.8541C94.7972 12.6803 94.6345 12.5483 94.4296 12.5483C94.2605 12.5483 94.0914 12.6642 94.0914 12.9281V12.9442C94.0979 13.1212 94.1109 13.3015 94.1304 13.4753C93.532 14.0547 91.5351 14.8047 90.5854 14.8047C90.3773 14.8047 90.1301 14.7725 90.1301 14.618C90.1301 14.4764 90.2504 14.2575 90.4976 13.9485C90.5236 13.9485 90.5496 13.9517 90.5822 13.9549C90.644 13.9646 90.7318 13.9775 90.8358 13.9775C90.8944 13.9775 90.9497 13.9678 91.0115 13.9582L91.0798 13.9453H91.0993C91.7335 13.7747 92.3189 13.2082 92.1563 12.5805V12.5676L92.1465 12.5547C92.0522 12.3487 91.805 12.2264 91.4863 12.2264C91.4213 12.2264 91.3432 12.2264 91.2651 12.2457C90.9172 12.3262 90.5366 12.7446 90.2862 13.0247C90.2179 13.0987 90.1333 13.1921 90.1073 13.2082C90.0911 13.221 90.0781 13.2275 90.0618 13.2339C89.9902 13.2725 89.8341 13.3498 89.8341 13.5397V13.5655C89.613 13.7682 89.3495 14.0354 89.0731 14.3187C88.2958 15.1105 87.3266 16.0955 86.6501 16.3144L86.6241 16.3208C86.5981 16.3273 86.5558 16.3369 86.5395 16.3369C86.5265 16.3369 86.507 16.3144 86.4908 16.221C86.481 16.1727 86.481 16.1084 86.481 16.0311C86.481 15.5837 86.9168 13.5687 87.1965 13.2178C88.1006 12.1298 89.7008 9.94742 90.2472 7.57189C90.296 7.39485 90.322 7.23069 90.322 7.06974V6.99571C90.3025 6.71567 90.1496 6.56116 89.8764 6.54506H89.8374C89.4699 6.54506 89.278 6.79936 89.1089 7.02146L89.0731 7.07296C88.1657 8.38949 86.9656 11.5279 86.4582 13.0054C86.4452 13.044 86.429 13.0891 86.4127 13.1245C85.8988 13.0311 85.385 12.9861 84.8451 12.9861H84.8191L84.8288 12.9442C84.8516 12.8315 84.8809 12.7253 84.9101 12.6191C84.9394 12.5193 84.9654 12.4195 84.9882 12.3165C85.6549 9.94099 86.416 7.23712 86.6566 4.57511L86.6631 4.49142C86.6729 4.35944 86.6859 4.21781 86.6859 4.08262C86.6859 3.81545 86.6859 3.01073 86.0029 2.9721H85.9997C85.8305 2.9721 85.6809 3.00751 85.5378 3.07833C85.4045 3.13948 85.2549 3.23605 85.1053 3.35515L85.0955 3.33906V3.3294C85.1085 3.29077 85.1476 3.22639 85.1801 3.17811C85.2354 3.08798 85.2874 3.00751 85.3004 2.9206V2.87232C85.3004 2.69206 85.128 2.65343 85.0727 2.64056H85.0565H85.0207C84.741 2.64056 84.6499 2.84335 84.5979 2.95279C84.5882 2.97532 84.5751 3.00429 84.5654 3.02039C83.9832 3.06867 83.3393 3.95064 83.0888 4.33047C82.0058 5.80794 80.9976 7.45923 80.0154 9.37446C79.856 9.69635 79.6999 10.0182 79.5471 10.3401C79.1178 11.2382 78.6722 12.162 78.1128 13.015C77.9632 13.2532 77.8559 13.4496 77.7778 13.633C77.703 13.765 77.6347 13.8101 77.4851 13.8326C77.1176 13.9099 76.7696 13.9871 76.4314 14.0676C76.7501 13.5976 77.1436 13.0794 77.6542 12.6384C77.6965 12.6062 77.7453 12.5676 77.7908 12.5129C77.8461 12.4614 77.8689 12.397 77.8559 12.3262C77.8396 12.2328 77.7485 12.162 77.6315 12.162C77.6152 12.162 77.5957 12.162 77.5762 12.1652C77.3615 12.2071 76.9094 12.6803 76.5907 13.0376C76.646 12.78 76.6948 12.5161 76.7273 12.2618V12.2167C76.7371 12.1491 76.7468 12.0751 76.7273 11.9979C76.698 11.8498 76.5875 11.7661 76.4249 11.7661H76.3956L76.3403 11.7758C76.2492 11.7951 76.1354 11.8305 76.0411 11.9496C75.95 12.0815 75.8492 12.2586 75.7354 12.4678C75.4719 12.9345 75.0751 13.6459 74.7597 13.7071H74.7402C74.7402 13.7071 74.7304 13.6878 74.7271 13.6652C74.6946 13.5011 74.7499 13.2242 74.7727 13.118V13.0923C74.802 12.9989 74.8345 12.8863 74.815 12.7865C74.7889 12.6609 74.6881 12.5869 74.5515 12.5869C74.5418 12.5869 74.5288 12.5901 74.5157 12.5901L74.4637 12.5966C74.2491 12.6352 74.1255 12.7157 74.0995 12.8315C74.0832 12.8412 74.0669 12.8541 74.0507 12.867C73.9368 12.9764 73.6929 13.1953 73.4783 13.3852C73.488 13.3273 73.4978 13.2661 73.4978 13.2049C73.501 13.073 73.449 12.9893 73.4035 12.941C73.3352 12.8734 73.2376 12.8348 73.1173 12.8348C73.0782 12.8348 73.0327 12.8412 72.9872 12.8509C72.8408 12.8766 72.7075 12.9506 72.5871 13.0472C72.8993 11.9946 73.2636 10.2564 73.1205 9.52253C73.0685 9.33906 72.9644 9.25215 72.8115 9.25215C72.7953 9.25215 72.7823 9.25215 72.766 9.25537H72.7465L72.6912 9.27146C72.5481 9.29721 72.4278 9.38412 72.3432 9.52253C71.8066 10.4818 71.5757 14.0515 71.5431 14.956V15.0011C71.5431 15.0912 71.5431 15.1395 71.5041 15.191C71.4553 15.2393 71.4358 15.3101 71.4488 15.3777C71.4618 15.4453 71.5171 15.5579 71.7448 15.5579C71.7968 15.5579 71.8423 15.5515 71.8684 15.5483C71.992 15.5258 72.0765 15.4549 72.1351 15.3358C72.1383 15.3326 72.1448 15.3294 72.1481 15.3262C72.1611 15.3133 72.1741 15.3004 72.1838 15.2908C72.3757 15.117 72.5611 14.9174 72.7595 14.6663C72.8115 14.5987 72.8733 14.5376 72.9449 14.4796C73.3547 14.1127 73.7287 13.7779 74.1125 13.4431C74.0962 13.5558 74.0897 13.6717 74.1125 13.7747C74.158 14.0258 74.3434 14.1642 74.6296 14.1642C74.6719 14.1642 74.7174 14.1609 74.7694 14.1545H74.7857L74.841 14.1384C75.2052 14.074 75.4427 13.823 75.6053 13.6137C75.7159 13.4721 75.8427 13.2758 75.9695 13.0697C75.9077 13.3948 75.8362 13.7135 75.7679 14.0193C75.7451 14.1094 75.7191 14.1674 75.6736 14.2318C75.6671 14.2414 75.6606 14.2511 75.6541 14.2607C73.9498 14.7017 72.5221 15.2232 71.413 15.8026C71.1789 15.9152 71.0293 16.0118 71.0033 16.1502V16.1631L71 16.1792C71 16.2371 71.0228 16.324 71.1301 16.3981C71.1984 16.4367 71.2699 16.456 71.3382 16.456H71.3675C71.6602 16.456 72.0537 16.2854 72.2456 16.1727C72.2814 16.1534 72.3237 16.1277 72.366 16.1019C72.405 16.0762 72.4473 16.0472 72.4733 16.0376C73.3384 15.6738 74.2426 15.3519 75.176 15.0751C74.9288 15.5483 74.6361 16.2082 74.5515 16.8004V16.8197C74.545 16.8938 74.5353 16.9871 74.5515 17.0773C74.5873 17.2543 74.7141 17.3605 74.8833 17.3605H74.9028L74.919 17.3541L74.9743 17.3412C75.2215 17.2994 75.3418 17.0837 75.4264 16.9227C75.7061 16.4367 75.9565 15.5869 76.1647 14.8015C76.4932 14.7146 76.8412 14.6309 77.2477 14.5408C76.3793 16.1373 75.5565 17.7918 74.9255 19.2146C74.8865 19.2725 74.8865 19.3337 74.8865 19.3562V19.4013C74.8865 19.5461 75.0166 19.662 75.1825 19.662H75.2117C75.3646 19.662 75.5045 19.5815 75.5988 19.4431C75.6541 19.3594 75.7028 19.2725 75.7549 19.1824C75.7874 19.1277 75.8199 19.073 75.8524 19.015L76.0964 18.5451C76.4932 17.7822 76.8964 17 77.3095 16.221L77.1924 16.662L77.1859 16.6813V16.7328C77.1859 16.868 77.303 16.9807 77.4493 16.9807H77.5371C77.7583 16.9807 77.8461 16.8133 77.8982 16.6717V16.662L77.9047 16.6524C78.0673 15.9281 78.2949 15.1749 78.5909 14.3541C78.6137 14.2768 78.6234 14.2575 78.747 14.2221C80.822 13.8391 82.4221 13.6395 83.9084 13.5719L82.7864 17.7114C82.5945 18.426 82.4026 19.1406 82.2107 19.8391C82.1424 20.1127 82.0741 20.383 82.0091 20.6534C81.853 21.294 81.6936 21.9571 81.505 22.6041L81.492 22.6395L81.4822 22.6652V22.7232C81.4822 22.9099 81.6611 22.9678 81.7261 22.9903L81.7521 23H81.7782C81.9896 23 82.1066 22.9067 82.1717 22.6942L83.4368 17.9528L84.6597 13.5558V13.5461H84.663H84.6792C85.1606 13.5461 85.5638 13.5687 85.9606 13.6202C85.9606 13.7779 86.0777 13.8358 86.1753 13.8616C85.9736 14.5086 85.6939 15.4549 85.6939 16.0536V16.0955C85.7102 16.6234 85.9899 16.9131 86.4745 16.9131C86.7737 16.9131 87.1217 16.8069 87.4307 16.6266C87.9673 16.3401 88.6958 15.5805 89.343 14.9109C89.3918 14.8594 89.4406 14.8112 89.4894 14.7597C89.5187 14.8981 89.5707 14.9753 89.5772 14.9882C89.7658 15.265 90.1301 15.4099 90.6277 15.4099C91.0277 15.4099 91.4343 15.3165 91.5579 15.2747C92.1107 15.1491 93.4572 14.6567 94.2313 14.1706V14.2253C94.2313 14.2253 94.163 14.2736 94.1044 14.309L92.9986 15.0139C92.9986 15.0139 92.9824 15.0204 92.9759 15.0236C92.9303 15.0461 92.8067 15.1041 92.8067 15.2489C92.8067 15.2715 92.8067 15.3358 92.8523 15.3906C92.9108 15.471 92.9889 15.5129 93.0864 15.5129C93.1092 15.5129 93.1385 15.5064 93.1678 15.5032C93.1743 15.5032 93.184 15.5032 93.1938 15.5032H93.21L93.236 15.4968C93.3694 15.4582 94.2117 14.9753 94.3581 14.8852C94.3646 14.882 94.3744 14.8755 94.3841 14.8723C94.5207 15.3262 94.7158 15.9056 95.3208 15.9249C95.929 15.9249 97.3665 14.8594 98.1048 14.2704C97.9649 15.0333 97.8478 15.735 97.7438 16.4077C97.7242 16.5815 97.7112 16.7328 97.6982 16.8841V16.9002C97.6982 17.0354 97.747 17.132 97.8446 17.1867C97.9259 17.2414 98.0137 17.2414 98.069 17.2414C98.2739 17.2414 98.4332 17.103 98.4788 16.8906V16.8745L98.482 16.8584C98.482 16.8391 98.482 16.8133 98.4853 16.8069L98.495 16.7843V16.765C98.8853 13.4496 99.796 10.1695 101.016 7.65236C100.83 8.71781 100.668 9.71245 100.547 10.72C100.495 11.1288 100.437 11.5504 100.437 11.9914V12.1137C100.437 12.2457 100.437 12.3841 100.482 12.5322V12.5418L100.489 12.5483C100.577 12.7511 100.729 12.8605 100.947 12.8798H101.058C101.289 12.8798 101.49 12.7929 101.637 12.632C101.715 12.5547 101.819 12.4517 101.897 12.3423C102.147 12.0526 102.362 11.7178 102.557 11.3991C103.92 9.20064 105.328 7.04721 106.733 5L106.902 4.75536C107.28 4.21137 107.667 3.65451 108.08 3.1427C108.028 3.51931 107.969 3.84442 107.901 4.14378C107.676 5.29936 107.38 6.38734 107.071 7.5397L107.029 7.70064C106.414 10.0569 105.777 12.4903 105.273 14.9431C105.084 15.9152 104.961 16.8809 104.827 17.9528V17.9721C104.827 18.0268 104.827 18.1202 104.902 18.1942L104.909 18.2006L104.918 18.2071C104.996 18.2682 105.087 18.3004 105.182 18.3004C105.214 18.3004 105.247 18.2908 105.27 18.2876L105.289 18.2811C105.387 18.2682 105.527 18.2167 105.566 18.0172C105.588 17.9206 105.608 17.8112 105.624 17.6727C105.731 16.8906 105.865 16.1051 106.037 15.2811C106.453 13.3498 106.971 11.3991 107.423 9.7221C107.533 9.31652 107.644 8.91416 107.758 8.50858C108.093 7.29185 108.444 6.03326 108.704 4.77468C108.847 4.12446 108.945 3.49678 109 2.85944C109 2.70172 109 2.54077 108.971 2.38948L108.974 2.37983ZM91.5448 12.6223C91.5579 12.6642 91.5579 12.7221 91.5579 12.7672C91.5579 13.176 91.1025 13.5815 90.6602 13.5815H90.5854C90.8521 13.2178 91.1481 12.8702 91.5448 12.6223ZM87.2876 12.2425C87.5543 11.573 89.3203 7.33047 89.7626 7.18562C89.6162 8.39592 88.8357 9.96996 88.2177 10.9903C88.0974 11.1481 87.3916 12.2843 87.2876 12.3294V12.2425ZM72.0765 13.2597C72.083 13.2403 72.0765 13.2146 72.083 13.2017C72.122 12.8541 72.5286 9.71888 72.7562 9.65773C72.7693 9.68348 72.766 9.7221 72.7758 9.75751C72.818 10.4206 72.3465 12.8315 72.0928 13.3047L72.0765 13.2597ZM72.1058 13.8358C72.1058 13.8358 72.1188 13.8326 72.122 13.8294C72.1155 13.8423 72.1123 13.8552 72.1058 13.868V13.8358ZM72.6392 14.2897C72.5806 14.3766 72.2359 14.6695 72.1351 14.7532C72.122 14.7371 72.1123 14.7307 72.1188 14.721C72.1188 14.7114 72.1155 14.7017 72.1253 14.6921C72.2229 14.3219 72.6034 13.2178 73.0359 13.1341C73.0425 13.1309 73.0457 13.1309 73.0522 13.1309C73.0912 13.1309 73.1173 13.1567 73.114 13.2339C73.1628 13.4882 72.7888 14.0805 72.6392 14.2897ZM74.3922 12.9732L74.3401 13.0247C74.3401 13.0054 74.3401 12.9893 74.3369 12.9732C74.3206 12.9378 74.2881 12.941 74.2718 12.9152C74.2881 12.9088 74.3043 12.9024 74.3206 12.8991C74.3304 12.8991 74.3369 12.8991 74.3466 12.8991C74.3857 12.8991 74.4084 12.9185 74.4117 12.9345C74.4182 12.9506 74.4117 12.9635 74.3922 12.9764V12.9732ZM74.9743 16.9614L74.9678 16.9324C74.8995 16.5783 75.4914 15.3294 75.6801 14.9818C75.5825 15.6159 75.2117 16.6491 74.9743 16.9614ZM76.0216 14.4249C76.0021 14.4828 75.9858 14.5408 75.9663 14.6019C75.8687 14.6277 75.7679 14.6567 75.6703 14.6824C75.6703 14.6824 75.6703 14.6803 75.6703 14.676C75.7093 14.6019 75.7451 14.5311 75.7907 14.4603C75.7907 14.4603 75.9858 14.4088 76.0248 14.3991C76.0248 14.4088 76.0216 14.4152 76.0183 14.4249H76.0216ZM84.2271 3.73176C83.4173 4.97103 82.562 6.18133 81.7521 7.40451C82.4742 6.12017 83.2384 4.86803 84.2271 3.73176ZM84.1621 12.6513L84.084 12.9442C84.0775 12.9635 84.0743 12.9796 84.071 12.9925C84.0515 12.9957 84.0288 12.9957 84.006 12.9989C82.2107 13.0601 80.474 13.3079 79.0169 13.5397C78.9812 13.5461 78.9421 13.5526 78.8999 13.559C79.108 13.0376 79.3031 12.5418 79.5698 12.0526C80.8285 9.74464 82.3148 7.52682 84.1166 5.27361C84.8841 4.35622 85.6647 3.59657 85.9118 3.51931C85.9183 3.52897 85.9216 3.54185 85.9314 3.55794C85.9606 3.64807 85.9769 3.79936 85.9769 4.03755C85.9769 4.51073 85.8923 5.21245 85.7004 6.31009C85.2809 8.53433 84.5264 11.3122 84.1621 12.6513Z" fill="black"/>
</svg>
